<svg id="svg" version="1.1" xmlns="http://www.w3.org/2000/svg" xmlns:xlink="http://www.w3.org/1999/xlink" width="400" height="397.1929824561403" viewBox="0, 0, 400,397.1929824561403"><g id="svgg"><path id="path0" d="M197.418 0.351 C 197.418 0.544,197.061 0.795,196.624 0.910 C 196.187 1.024,195.829 1.402,195.829 1.750 C 195.829 2.098,195.561 2.383,195.233 2.383 C 194.817 2.383,194.638 2.803,194.638 3.774 C 194.638 4.899,194.486 5.164,193.843 5.164 C 193.402 5.164,193.049 5.429,193.049 5.760 C 193.049 6.087,192.781 6.356,192.453 6.356 C 192.125 6.356,191.857 6.692,191.857 7.104 C 191.857 7.518,191.502 7.945,191.063 8.059 C 190.484 8.211,190.268 8.601,190.268 9.496 C 190.268 10.460,190.097 10.725,189.474 10.725 C 189.037 10.725,188.679 10.974,188.679 11.278 C 188.679 11.583,188.411 11.934,188.083 12.060 C 187.742 12.191,187.488 12.784,187.488 13.447 C 187.488 14.270,187.258 14.664,186.693 14.812 C 186.115 14.963,185.899 15.354,185.899 16.249 C 185.899 17.076,185.704 17.478,185.303 17.478 C 184.972 17.478,184.707 17.831,184.707 18.272 C 184.707 18.709,184.447 19.067,184.129 19.067 C 183.783 19.067,183.447 19.625,183.291 20.457 C 183.141 21.253,182.794 21.847,182.478 21.847 C 182.113 21.847,181.927 22.316,181.927 23.237 C 181.927 24.363,181.775 24.628,181.132 24.628 C 180.489 24.628,180.338 24.892,180.338 26.018 C 180.338 26.989,180.158 27.408,179.742 27.408 C 179.326 27.408,179.146 27.827,179.146 28.798 C 179.146 29.924,178.995 30.189,178.352 30.189 C 177.708 30.189,177.557 30.453,177.557 31.579 C 177.557 32.550,177.377 32.969,176.961 32.969 C 176.546 32.969,176.365 33.387,176.365 34.346 C 176.365 35.315,176.131 35.847,175.571 36.147 C 174.959 36.475,174.777 36.979,174.777 38.346 C 174.777 39.657,174.621 40.119,174.181 40.119 C 173.765 40.119,173.585 40.538,173.585 41.509 C 173.585 42.635,173.434 42.900,172.790 42.900 C 172.092 42.900,171.996 43.165,171.996 45.084 C 171.996 46.762,171.858 47.269,171.400 47.269 C 170.950 47.269,170.804 47.755,170.804 49.255 C 170.804 50.976,170.698 51.241,170.010 51.241 C 169.312 51.241,169.215 51.506,169.215 53.426 C 169.215 55.346,169.119 55.611,168.421 55.611 C 167.735 55.611,167.627 55.876,167.627 57.554 C 167.627 58.916,167.448 59.566,167.031 59.727 C 166.610 59.888,166.435 60.544,166.435 61.954 C 166.435 63.397,166.281 63.952,165.882 63.952 C 165.117 63.952,164.846 64.844,164.846 67.361 C 164.846 69.009,164.707 69.513,164.250 69.513 C 163.778 69.513,163.654 70.082,163.654 72.248 C 163.654 74.648,163.557 75.007,162.860 75.190 C 162.160 75.373,162.066 75.731,162.066 78.215 C 162.066 80.455,161.943 81.033,161.470 81.033 C 160.988 81.033,160.874 81.662,160.874 84.314 C 160.874 87.164,160.770 87.659,160.079 88.091 C 159.377 88.529,159.285 89.017,159.285 92.314 C 159.285 95.261,159.160 96.090,158.689 96.271 C 158.205 96.456,158.093 97.397,158.093 101.278 C 158.093 105.099,157.982 106.058,157.540 106.058 C 156.631 106.058,156.504 107.009,156.504 113.836 C 156.504 119.368,156.414 120.357,155.909 120.357 C 155.388 120.357,155.307 122.816,155.267 139.921 C 155.241 150.680,155.139 159.171,155.039 158.788 C 154.939 158.406,154.602 158.093,154.291 158.093 C 153.922 158.093,153.724 157.664,153.724 156.865 C 153.724 155.970,153.508 155.579,152.929 155.428 C 152.490 155.313,152.135 154.886,152.135 154.472 C 152.135 154.061,151.867 153.724,151.539 153.724 C 151.212 153.724,150.943 153.456,150.943 153.128 C 150.943 152.797,150.590 152.532,150.149 152.532 C 149.619 152.532,149.355 152.267,149.355 151.738 C 149.355 151.296,149.090 150.943,148.759 150.943 C 148.431 150.943,148.163 150.601,148.163 150.181 C 148.163 148.998,147.735 148.163,147.127 148.163 C 146.823 148.163,146.574 147.895,146.574 147.567 C 146.574 147.239,146.306 146.971,145.978 146.971 C 145.650 146.971,145.382 146.686,145.382 146.338 C 145.382 145.990,145.025 145.612,144.588 145.497 C 144.151 145.383,143.793 145.037,143.793 144.728 C 143.793 144.419,143.525 144.063,143.198 143.937 C 142.870 143.811,142.602 143.459,142.602 143.155 C 142.602 142.851,142.244 142.602,141.807 142.602 C 141.278 142.602,141.013 142.337,141.013 141.807 C 141.013 141.366,140.748 141.013,140.417 141.013 C 140.089 141.013,139.821 140.745,139.821 140.417 C 139.821 140.086,139.468 139.821,139.027 139.821 C 138.497 139.821,138.232 139.556,138.232 139.027 C 138.232 138.585,137.968 138.232,137.637 138.232 C 137.309 138.232,137.041 137.964,137.041 137.637 C 137.041 137.306,136.688 137.041,136.246 137.041 C 135.717 137.041,135.452 136.776,135.452 136.246 C 135.452 135.717,135.187 135.452,134.657 135.452 C 134.216 135.452,133.863 135.187,133.863 134.856 C 133.863 134.528,133.595 134.260,133.267 134.260 C 132.936 134.260,132.671 133.907,132.671 133.466 C 132.671 132.936,132.406 132.671,131.877 132.671 C 131.436 132.671,131.082 132.406,131.082 132.075 C 131.082 131.748,130.814 131.480,130.487 131.480 C 130.156 131.480,129.891 131.127,129.891 130.685 C 129.891 130.156,129.626 129.891,129.096 129.891 C 128.655 129.891,128.302 129.626,128.302 129.295 C 128.302 128.967,128.034 128.699,127.706 128.699 C 127.375 128.699,127.110 128.346,127.110 127.905 C 127.110 127.375,126.845 127.110,126.316 127.110 C 125.786 127.110,125.521 126.845,125.521 126.316 C 125.521 125.874,125.257 125.521,124.926 125.521 C 124.598 125.521,124.330 125.253,124.330 124.926 C 124.330 124.595,123.977 124.330,123.535 124.330 C 123.006 124.330,122.741 124.065,122.741 123.535 C 122.741 123.098,122.492 122.741,122.187 122.741 C 121.883 122.741,121.531 122.473,121.406 122.145 C 121.280 121.817,120.924 121.549,120.615 121.549 C 120.306 121.549,119.959 121.192,119.845 120.755 C 119.731 120.318,119.353 119.960,119.004 119.960 C 118.656 119.960,118.371 119.692,118.371 119.364 C 118.371 118.967,117.974 118.769,117.180 118.769 C 116.253 118.769,115.988 118.592,115.988 117.974 C 115.988 117.445,115.723 117.180,115.194 117.180 C 114.752 117.180,114.399 116.915,114.399 116.584 C 114.399 116.253,114.046 115.988,113.605 115.988 C 113.075 115.988,112.810 115.723,112.810 115.194 C 112.810 114.752,112.546 114.399,112.214 114.399 C 111.887 114.399,111.619 114.131,111.619 113.803 C 111.619 113.476,111.282 113.208,110.871 113.208 C 110.457 113.208,110.030 112.853,109.915 112.413 C 109.763 111.835,109.373 111.619,108.478 111.619 C 107.651 111.619,107.249 111.424,107.249 111.023 C 107.249 110.695,106.981 110.427,106.653 110.427 C 106.322 110.427,106.058 110.074,106.058 109.633 C 106.058 109.103,105.793 108.838,105.263 108.838 C 104.822 108.838,104.469 108.573,104.469 108.242 C 104.469 107.826,104.049 107.646,103.078 107.646 C 101.953 107.646,101.688 107.495,101.688 106.852 C 101.688 106.411,101.423 106.058,101.092 106.058 C 100.765 106.058,100.497 105.784,100.497 105.449 C 100.497 105.115,100.184 104.726,99.801 104.586 C 99.419 104.445,98.963 104.093,98.789 103.804 C 98.614 103.514,97.944 103.277,97.299 103.277 C 96.392 103.277,96.127 103.098,96.127 102.483 C 96.127 102.046,95.878 101.688,95.574 101.688 C 95.269 101.688,94.918 101.420,94.792 101.092 C 94.648 100.718,94.041 100.497,93.160 100.497 C 92.023 100.497,91.758 100.347,91.758 99.702 C 91.758 99.261,91.493 98.908,91.162 98.908 C 90.834 98.908,90.566 98.640,90.566 98.312 C 90.566 97.896,90.147 97.716,89.176 97.716 C 88.050 97.716,87.786 97.565,87.786 96.922 C 87.786 96.392,87.521 96.127,86.991 96.127 C 86.550 96.127,86.197 95.862,86.197 95.531 C 86.197 95.115,85.777 94.935,84.806 94.935 C 83.681 94.935,83.416 94.784,83.416 94.141 C 83.416 93.611,83.151 93.347,82.622 93.347 C 82.180 93.347,81.827 93.082,81.827 92.751 C 81.827 92.357,81.433 92.155,80.662 92.155 C 79.846 92.155,79.422 91.917,79.245 91.360 C 79.069 90.804,78.644 90.566,77.828 90.566 C 77.058 90.566,76.663 90.364,76.663 89.970 C 76.663 89.554,76.244 89.374,75.273 89.374 C 74.266 89.374,73.883 89.200,73.883 88.741 C 73.883 88.393,73.538 88.018,73.116 87.908 C 72.694 87.797,72.253 87.457,72.135 87.151 C 72.018 86.844,71.401 86.594,70.764 86.594 C 69.940 86.594,69.546 86.365,69.398 85.799 C 69.249 85.229,68.856 85.005,68.008 85.005 C 67.160 85.005,66.767 84.781,66.618 84.211 C 66.467 83.632,66.076 83.416,65.181 83.416 C 64.354 83.416,63.952 83.221,63.952 82.820 C 63.952 82.408,63.538 82.224,62.608 82.224 C 61.599 82.224,61.213 82.027,61.057 81.430 C 60.907 80.859,60.515 80.636,59.663 80.636 C 58.975 80.636,58.380 80.385,58.248 80.040 C 58.120 79.707,57.529 79.444,56.910 79.444 C 56.232 79.444,55.609 79.136,55.306 78.649 C 54.989 78.143,54.379 77.855,53.621 77.855 C 52.830 77.855,52.433 77.656,52.433 77.259 C 52.433 76.809,51.947 76.663,50.447 76.663 C 48.726 76.663,48.461 76.557,48.461 75.869 C 48.461 75.226,48.196 75.074,47.071 75.074 C 46.100 75.074,45.680 74.895,45.680 74.479 C 45.680 74.021,45.173 73.883,43.496 73.883 C 41.576 73.883,41.311 73.787,41.311 73.088 C 41.311 72.445,41.046 72.294,39.921 72.294 C 38.950 72.294,38.530 72.114,38.530 71.698 C 38.530 71.215,37.890 71.102,35.154 71.102 L 31.778 71.102 31.778 73.088 C 31.778 74.589,31.923 75.074,32.373 75.074 C 32.880 75.074,32.969 76.094,32.969 81.864 C 32.969 88.320,33.008 88.665,33.764 88.862 C 34.494 89.053,34.558 89.404,34.558 93.207 C 34.558 96.518,34.677 97.389,35.154 97.572 C 35.618 97.750,35.750 98.538,35.750 101.135 C 35.750 104.204,35.813 104.469,36.544 104.469 C 37.280 104.469,37.339 104.734,37.339 108.044 C 37.339 110.957,37.449 111.619,37.934 111.619 C 38.404 111.619,38.530 112.174,38.530 114.238 C 38.530 116.523,38.632 116.883,39.325 117.065 C 40.022 117.247,40.119 117.606,40.119 120.007 C 40.119 122.172,40.243 122.741,40.715 122.741 C 41.184 122.741,41.311 123.297,41.311 125.360 C 41.311 127.645,41.412 128.006,42.105 128.187 C 42.776 128.362,42.900 128.729,42.900 130.533 C 42.900 132.406,42.998 132.671,43.694 132.671 C 44.407 132.671,44.489 132.936,44.489 135.266 C 44.489 137.205,44.639 137.918,45.084 138.089 C 45.500 138.248,45.680 138.897,45.680 140.234 C 45.680 141.802,45.825 142.197,46.475 142.403 C 47.128 142.610,47.269 143.004,47.269 144.615 C 47.269 146.091,47.416 146.574,47.865 146.574 C 48.306 146.574,48.461 147.037,48.461 148.358 C 48.461 149.712,48.652 150.262,49.255 150.638 C 49.786 150.970,50.050 151.565,50.050 152.429 C 50.050 153.315,50.238 153.724,50.645 153.724 C 51.097 153.724,51.241 154.214,51.241 155.747 C 51.241 157.436,51.372 157.805,52.036 157.978 C 52.679 158.146,52.830 158.520,52.830 159.940 C 52.830 161.132,53.021 161.766,53.426 161.922 C 53.794 162.063,54.022 162.667,54.022 163.498 C 54.022 164.581,54.178 164.846,54.816 164.846 C 55.459 164.846,55.611 165.111,55.611 166.236 C 55.611 167.207,55.790 167.627,56.207 167.627 C 56.637 167.627,56.802 168.068,56.802 169.215 C 56.802 170.275,57.067 171.069,57.597 171.599 C 58.034 172.036,58.391 172.846,58.391 173.399 C 58.391 173.952,58.659 174.507,58.987 174.633 C 59.333 174.766,59.583 175.360,59.583 176.048 C 59.583 176.900,59.807 177.293,60.377 177.442 C 60.974 177.598,61.172 177.984,61.172 178.994 C 61.172 179.923,61.355 180.338,61.768 180.338 C 62.184 180.338,62.363 180.757,62.363 181.728 C 62.363 182.853,62.515 183.118,63.158 183.118 C 63.801 183.118,63.952 183.383,63.952 184.508 C 63.952 185.634,64.104 185.899,64.747 185.899 C 65.390 185.899,65.541 186.164,65.541 187.289 C 65.541 188.260,65.721 188.679,66.137 188.679 C 66.553 188.679,66.733 189.099,66.733 190.070 C 66.733 191.195,66.884 191.460,67.527 191.460 C 68.170 191.460,68.322 191.725,68.322 192.850 C 68.322 193.821,68.501 194.240,68.918 194.240 C 69.334 194.240,69.513 194.660,69.513 195.631 C 69.513 196.756,69.665 197.021,70.308 197.021 C 70.952 197.021,71.102 197.286,71.102 198.424 C 71.102 199.304,71.324 199.911,71.698 200.055 C 72.026 200.181,72.294 200.728,72.294 201.271 C 72.294 201.925,72.563 202.329,73.088 202.467 C 73.528 202.582,73.883 203.009,73.883 203.423 C 73.883 203.834,74.151 204.171,74.479 204.171 C 74.895 204.171,75.074 204.590,75.074 205.561 C 75.074 206.687,75.226 206.951,75.869 206.951 C 76.512 206.951,76.663 207.216,76.663 208.342 C 76.663 209.260,76.850 209.732,77.213 209.732 C 77.515 209.732,77.856 210.089,77.970 210.526 C 78.084 210.963,78.463 211.321,78.811 211.321 C 79.251 211.321,79.444 211.688,79.444 212.525 C 79.444 213.229,79.691 213.824,80.040 213.958 C 80.367 214.083,80.636 214.435,80.636 214.740 C 80.636 215.044,80.993 215.293,81.430 215.293 C 81.989 215.293,82.225 215.558,82.225 216.187 C 82.226 217.271,77.156 217.327,76.544 216.250 C 76.303 215.825,75.237 215.690,72.122 215.690 C 68.351 215.690,68.000 215.626,67.809 214.896 C 67.613 214.144,67.268 214.101,61.408 214.101 C 56.167 214.101,55.214 214.010,55.214 213.505 C 55.214 212.989,53.647 212.910,43.496 212.910 C 33.344 212.910,31.778 212.989,31.778 213.505 C 31.778 214.010,30.825 214.101,25.583 214.101 C 19.723 214.101,19.378 214.144,19.182 214.896 C 18.995 215.611,18.640 215.690,15.631 215.690 C 13.027 215.690,12.238 215.822,12.060 216.286 C 11.900 216.703,11.249 216.882,9.888 216.882 C 8.209 216.882,7.944 216.990,7.944 217.676 C 7.944 218.395,7.680 218.471,5.164 218.471 C 2.957 218.471,2.383 218.594,2.383 219.067 C 2.383 219.398,2.030 219.662,1.589 219.662 C 0.398 219.662,0.398 223.605,1.589 223.917 C 2.186 224.073,2.383 224.458,2.383 225.468 C 2.383 226.398,2.567 226.812,2.979 226.812 C 3.395 226.812,3.575 227.232,3.575 228.203 C 3.575 229.328,3.726 229.593,4.369 229.593 C 5.013 229.593,5.164 229.858,5.164 230.983 C 5.164 231.954,5.344 232.373,5.760 232.373 C 6.087 232.373,6.356 232.642,6.356 232.969 C 6.356 233.300,6.709 233.565,7.150 233.565 C 7.793 233.565,7.944 233.830,7.944 234.955 C 7.944 235.926,8.124 236.346,8.540 236.346 C 8.871 236.346,9.136 236.699,9.136 237.140 C 9.136 237.670,9.401 237.934,9.930 237.934 C 10.574 237.934,10.725 238.199,10.725 239.325 C 10.725 240.244,10.911 240.715,11.274 240.715 C 11.577 240.715,11.917 241.072,12.032 241.509 C 12.146 241.946,12.524 242.304,12.872 242.304 C 13.311 242.304,13.505 242.670,13.505 243.496 C 13.505 244.245,13.709 244.687,14.055 244.687 C 14.357 244.687,14.698 245.045,14.812 245.482 C 14.926 245.919,15.305 246.276,15.653 246.276 C 16.021 246.276,16.286 246.608,16.286 247.071 C 16.286 247.512,16.551 247.865,16.882 247.865 C 17.210 247.865,17.478 248.133,17.478 248.461 C 17.478 248.792,17.831 249.057,18.272 249.057 C 18.895 249.057,19.067 249.321,19.067 250.285 C 19.067 251.180,19.283 251.571,19.861 251.722 C 20.298 251.836,20.655 252.183,20.655 252.492 C 20.655 252.801,20.924 253.157,21.251 253.282 C 21.579 253.408,21.847 253.760,21.847 254.064 C 21.847 254.369,22.205 254.618,22.642 254.618 C 23.171 254.618,23.436 254.882,23.436 255.412 C 23.436 255.853,23.701 256.207,24.032 256.207 C 24.359 256.207,24.628 256.475,24.628 256.802 C 24.628 257.133,24.981 257.398,25.422 257.398 C 25.952 257.398,26.216 257.663,26.216 258.193 C 26.216 258.634,26.481 258.987,26.812 258.987 C 27.140 258.987,27.408 259.255,27.408 259.583 C 27.408 259.914,27.761 260.179,28.203 260.179 C 28.732 260.179,28.997 260.444,28.997 260.973 C 28.997 261.410,29.244 261.768,29.547 261.768 C 29.849 261.768,30.190 262.125,30.304 262.562 C 30.418 262.999,30.796 263.357,31.145 263.357 C 31.493 263.357,31.778 263.625,31.778 263.952 C 31.778 264.280,32.027 264.548,32.331 264.548 C 32.635 264.548,32.987 264.816,33.113 265.144 C 33.239 265.472,33.594 265.740,33.903 265.740 C 34.213 265.740,34.559 266.097,34.673 266.534 C 34.824 267.113,35.215 267.329,36.110 267.329 C 37.074 267.329,37.339 267.500,37.339 268.123 C 37.339 268.564,37.603 268.918,37.934 268.918 C 38.262 268.918,38.530 269.186,38.530 269.513 C 38.530 269.844,38.883 270.109,39.325 270.109 C 39.854 270.109,40.119 270.374,40.119 270.904 C 40.119 271.433,40.384 271.698,40.914 271.698 C 41.355 271.698,41.708 271.963,41.708 272.294 C 41.708 272.710,42.127 272.890,43.098 272.890 C 44.224 272.890,44.489 273.041,44.489 273.684 C 44.489 274.126,44.753 274.479,45.084 274.479 C 45.412 274.479,45.680 274.747,45.680 275.074 C 45.680 275.402,46.017 275.670,46.428 275.670 C 46.842 275.670,47.269 276.025,47.384 276.465 C 47.535 277.043,47.926 277.259,48.821 277.259 C 49.648 277.259,50.050 277.454,50.050 277.855 C 50.050 278.183,50.306 278.451,50.619 278.451 C 50.932 278.451,51.301 278.808,51.440 279.245 C 51.617 279.802,52.041 280.040,52.857 280.040 C 53.628 280.040,54.022 280.241,54.022 280.636 C 54.022 280.963,54.358 281.231,54.770 281.231 C 55.184 281.231,55.611 281.586,55.726 282.026 C 55.875 282.596,56.268 282.820,57.116 282.820 C 57.965 282.820,58.357 283.045,58.506 283.615 C 58.658 284.193,59.048 284.409,59.943 284.409 C 60.770 284.409,61.172 284.604,61.172 285.005 C 61.172 285.417,61.586 285.601,62.516 285.601 C 63.526 285.601,63.911 285.798,64.067 286.395 C 64.219 286.974,64.609 287.190,65.504 287.190 C 66.332 287.190,66.733 287.384,66.733 287.786 C 66.733 288.198,67.147 288.381,68.077 288.381 C 69.087 288.381,69.472 288.579,69.629 289.176 C 69.780 289.754,70.170 289.970,71.065 289.970 C 71.893 289.970,72.294 290.165,72.294 290.566 C 72.294 290.982,72.713 291.162,73.684 291.162 C 74.810 291.162,75.074 291.313,75.074 291.956 C 75.074 292.595,75.339 292.751,76.422 292.751 C 77.254 292.751,77.858 292.979,77.999 293.347 C 78.160 293.767,78.816 293.942,80.226 293.942 C 81.960 293.942,82.224 294.048,82.224 294.737 C 82.224 295.375,82.489 295.531,83.572 295.531 C 84.404 295.531,85.008 295.759,85.149 296.127 C 85.308 296.542,86.014 296.739,87.475 296.777 C 88.629 296.807,89.171 296.909,88.679 297.003 C 88.188 297.098,87.786 297.431,87.786 297.744 C 87.786 298.114,87.358 298.312,86.557 298.312 C 85.662 298.312,85.271 298.528,85.120 299.106 C 85.005 299.546,84.578 299.901,84.164 299.901 C 83.753 299.901,83.416 300.169,83.416 300.497 C 83.416 300.891,83.022 301.092,82.251 301.092 C 81.435 301.092,81.011 301.330,80.834 301.887 C 80.695 302.324,80.326 302.681,80.013 302.681 C 79.700 302.681,79.444 302.949,79.444 303.277 C 79.444 303.678,79.043 303.873,78.215 303.873 C 77.320 303.873,76.930 304.089,76.778 304.667 C 76.663 305.107,76.237 305.462,75.823 305.462 C 75.411 305.462,75.074 305.730,75.074 306.058 C 75.074 306.385,74.806 306.653,74.479 306.653 C 74.148 306.653,73.883 307.007,73.883 307.448 C 73.883 308.068,73.618 308.242,72.679 308.242 C 71.989 308.242,71.379 308.490,71.252 308.823 C 71.129 309.142,70.688 309.512,70.271 309.644 C 69.854 309.776,69.513 310.141,69.513 310.454 C 69.513 310.767,69.245 311.023,68.918 311.023 C 68.590 311.023,68.322 311.291,68.322 311.619 C 68.322 311.950,67.969 312.214,67.527 312.214 C 66.998 312.214,66.733 312.479,66.733 313.009 C 66.733 313.450,66.468 313.803,66.137 313.803 C 65.806 313.803,65.541 314.156,65.541 314.598 C 65.541 315.127,65.276 315.392,64.747 315.392 C 64.305 315.392,63.952 315.657,63.952 315.988 C 63.952 316.319,63.599 316.584,63.158 316.584 C 62.628 316.584,62.363 316.849,62.363 317.378 C 62.363 317.820,62.099 318.173,61.768 318.173 C 61.440 318.173,61.172 318.441,61.172 318.769 C 61.172 319.100,60.819 319.364,60.377 319.364 C 59.848 319.364,59.583 319.629,59.583 320.159 C 59.583 320.600,59.318 320.953,58.987 320.953 C 58.659 320.953,58.391 321.221,58.391 321.549 C 58.391 321.880,58.038 322.145,57.597 322.145 C 57.067 322.145,56.802 322.410,56.802 322.939 C 56.802 323.381,56.538 323.734,56.207 323.734 C 55.879 323.734,55.611 324.002,55.611 324.330 C 55.611 324.661,55.258 324.926,54.816 324.926 C 54.287 324.926,54.022 325.190,54.022 325.720 C 54.022 326.161,53.757 326.514,53.426 326.514 C 53.098 326.514,52.830 326.783,52.830 327.110 C 52.830 327.441,52.477 327.706,52.036 327.706 C 51.506 327.706,51.241 327.971,51.241 328.500 C 51.241 328.942,50.976 329.295,50.645 329.295 C 50.318 329.295,50.050 329.563,50.050 329.891 C 50.050 330.222,49.697 330.487,49.255 330.487 C 48.726 330.487,48.461 330.751,48.461 331.281 C 48.461 331.722,48.196 332.075,47.865 332.075 C 47.537 332.075,47.269 332.344,47.269 332.671 C 47.269 333.002,46.916 333.267,46.475 333.267 C 45.945 333.267,45.680 333.532,45.680 334.062 C 45.680 334.503,45.415 334.856,45.084 334.856 C 44.753 334.856,44.489 335.209,44.489 335.650 C 44.489 336.180,44.224 336.445,43.694 336.445 C 43.253 336.445,42.900 336.710,42.900 337.041 C 42.900 337.372,42.547 337.637,42.105 337.637 C 41.576 337.637,41.311 337.901,41.311 338.431 C 41.311 338.872,41.046 339.225,40.715 339.225 C 40.318 339.225,40.119 339.623,40.119 340.417 C 40.119 341.514,40.230 341.609,41.509 341.609 C 42.635 341.609,42.900 341.760,42.900 342.403 C 42.900 343.101,43.165 343.198,45.084 343.198 C 46.762 343.198,47.269 343.336,47.269 343.793 C 47.269 344.266,47.843 344.389,50.050 344.389 C 52.565 344.389,52.830 344.465,52.830 345.184 C 52.830 345.915,53.095 345.978,56.180 345.978 C 59.181 345.978,59.556 346.061,59.782 346.773 C 60.018 347.517,60.383 347.567,65.568 347.567 C 70.223 347.567,71.102 347.662,71.102 348.163 C 71.102 348.687,74.788 348.759,101.887 348.759 C 128.986 348.759,132.671 348.687,132.671 348.163 C 132.671 347.677,133.333 347.567,136.246 347.567 C 139.292 347.567,139.939 347.449,140.616 346.773 C 141.247 346.141,141.940 345.978,143.992 345.978 C 146.309 345.978,146.574 345.897,146.574 345.184 C 146.574 344.465,146.839 344.389,149.355 344.389 C 151.561 344.389,152.135 344.266,152.135 343.793 C 152.135 343.336,152.643 343.198,154.320 343.198 C 156.240 343.198,156.504 343.101,156.504 342.403 C 156.504 341.714,156.769 341.609,158.503 341.609 C 159.913 341.609,160.569 341.433,160.730 341.013 C 160.890 340.596,161.541 340.417,162.902 340.417 C 164.581 340.417,164.846 340.309,164.846 339.623 C 164.846 338.924,165.111 338.828,167.031 338.828 C 168.708 338.828,169.215 338.690,169.215 338.232 C 169.215 337.816,169.635 337.637,170.606 337.637 C 171.731 337.637,171.996 337.485,171.996 336.842 C 171.996 336.154,172.261 336.048,173.982 336.048 C 175.483 336.048,175.968 335.902,175.968 335.452 C 175.968 335.033,176.392 334.856,177.396 334.856 C 178.489 334.856,178.872 334.670,179.031 334.062 C 179.187 333.465,179.573 333.267,180.583 333.267 C 181.512 333.267,181.927 333.084,181.927 332.671 C 181.927 332.270,182.328 332.075,183.155 332.075 C 184.050 332.075,184.441 331.860,184.592 331.281 C 184.738 330.722,185.134 330.487,185.925 330.487 C 186.544 330.487,187.194 330.246,187.369 329.952 C 187.753 329.306,189.826 328.856,191.004 329.164 C 191.830 329.381,191.857 329.581,191.857 335.498 C 191.857 340.665,191.949 341.609,192.453 341.609 C 192.945 341.609,193.049 342.341,193.049 345.817 C 193.049 349.691,193.112 350.041,193.843 350.232 C 194.558 350.419,194.638 350.774,194.638 353.770 C 194.638 356.465,194.751 357.100,195.233 357.100 C 195.706 357.100,195.829 357.674,195.829 359.881 C 195.829 362.397,195.905 362.661,196.624 362.661 C 197.343 362.661,197.418 362.926,197.418 365.454 C 197.418 367.571,197.562 368.303,198.014 368.476 C 198.431 368.636,198.610 369.287,198.610 370.648 C 198.610 372.327,198.718 372.592,199.404 372.592 C 200.102 372.592,200.199 372.857,200.199 374.777 C 200.199 376.454,200.337 376.961,200.794 376.961 C 201.245 376.961,201.390 377.447,201.390 378.947 C 201.390 380.669,201.496 380.933,202.185 380.933 C 202.874 380.933,202.979 381.198,202.979 382.932 C 202.979 384.342,203.155 384.998,203.575 385.159 C 203.921 385.292,204.171 385.886,204.171 386.574 C 204.171 387.427,204.395 387.819,204.965 387.968 C 205.562 388.124,205.760 388.510,205.760 389.520 C 205.760 390.450,205.943 390.864,206.356 390.864 C 206.772 390.864,206.951 391.283,206.951 392.254 C 206.951 393.380,207.103 393.644,207.746 393.644 C 208.275 393.644,208.540 393.909,208.540 394.439 C 208.540 394.880,208.805 395.233,209.136 395.233 C 209.464 395.233,209.732 395.501,209.732 395.829 C 209.732 396.200,210.107 396.425,210.725 396.425 C 211.271 396.425,211.718 396.604,211.718 396.822 C 211.718 397.059,213.241 397.219,215.492 397.219 C 217.581 397.219,219.265 397.053,219.265 396.846 C 219.265 396.641,219.935 396.418,220.755 396.350 C 222.115 396.237,222.255 396.114,222.369 394.935 C 222.462 393.966,222.685 393.644,223.263 393.644 C 223.919 393.644,224.032 393.358,224.032 391.701 C 224.032 390.340,224.210 389.689,224.628 389.529 C 224.976 389.395,225.223 388.800,225.223 388.096 C 225.223 387.290,225.026 386.892,224.628 386.892 C 224.199 386.892,224.032 386.454,224.032 385.335 C 224.032 383.395,223.711 382.522,222.996 382.522 C 222.629 382.522,222.443 382.056,222.443 381.132 C 222.443 380.161,222.263 379.742,221.847 379.742 C 221.463 379.742,221.249 379.353,221.246 378.649 C 221.237 376.949,220.814 375.770,220.212 375.770 C 219.846 375.770,219.662 375.293,219.662 374.342 C 219.662 373.249,219.476 372.866,218.868 372.707 C 218.210 372.535,218.073 372.165,218.073 370.559 C 218.073 369.100,217.926 368.620,217.478 368.620 C 217.020 368.620,216.882 368.112,216.882 366.435 C 216.882 364.515,216.786 364.250,216.087 364.250 C 215.369 364.250,215.293 363.985,215.293 361.470 C 215.293 359.263,215.170 358.689,214.697 358.689 C 214.224 358.689,214.101 358.115,214.101 355.909 C 214.101 353.393,214.026 353.128,213.307 353.128 C 212.571 353.128,212.512 352.863,212.512 349.553 C 212.512 346.640,212.402 345.978,211.917 345.978 C 211.426 345.978,211.321 345.268,211.321 341.969 C 211.321 338.293,211.255 337.942,210.526 337.752 C 209.796 337.561,209.732 337.210,209.732 333.419 C 209.732 329.560,209.783 329.295,210.526 329.295 C 210.968 329.295,211.321 329.560,211.321 329.891 C 211.321 330.303,211.735 330.487,212.665 330.487 C 213.675 330.487,214.060 330.684,214.216 331.281 C 214.368 331.860,214.758 332.075,215.653 332.075 C 216.480 332.075,216.882 332.270,216.882 332.671 C 216.882 333.087,217.301 333.267,218.272 333.267 C 219.398 333.267,219.662 333.418,219.662 334.062 C 219.662 334.705,219.927 334.856,221.053 334.856 C 222.024 334.856,222.443 335.036,222.443 335.452 C 222.443 335.867,222.861 336.048,223.819 336.048 C 224.789 336.048,225.321 336.282,225.621 336.842 C 225.948 337.454,226.452 337.637,227.819 337.637 C 229.131 337.637,229.593 337.792,229.593 338.232 C 229.593 338.690,230.100 338.828,231.778 338.828 C 233.697 338.828,233.962 338.924,233.962 339.623 C 233.962 340.311,234.227 340.417,235.948 340.417 C 237.449 340.417,237.934 340.563,237.934 341.013 C 237.934 341.470,238.442 341.609,240.119 341.609 C 242.039 341.609,242.304 341.705,242.304 342.403 C 242.304 343.101,242.569 343.198,244.489 343.198 C 246.166 343.198,246.673 343.336,246.673 343.793 C 246.673 344.261,247.222 344.389,249.228 344.389 C 251.435 344.389,251.818 344.498,252.036 345.184 C 252.256 345.878,252.637 345.978,255.042 345.978 C 257.121 345.978,257.795 346.113,257.795 346.528 C 257.795 347.296,259.065 347.555,262.860 347.562 C 265.506 347.566,266.137 347.682,266.137 348.163 C 266.137 348.687,269.822 348.759,296.922 348.759 C 324.021 348.759,327.706 348.687,327.706 348.163 C 327.706 347.662,328.571 347.567,333.106 347.567 C 338.171 347.567,338.518 347.518,338.713 346.773 C 338.901 346.053,339.255 345.978,342.450 345.978 C 345.713 345.978,345.978 345.919,345.978 345.184 C 345.978 344.470,346.243 344.389,348.573 344.389 C 350.512 344.389,351.225 344.239,351.396 343.793 C 351.555 343.378,352.204 343.198,353.541 343.198 C 355.109 343.198,355.504 343.053,355.710 342.403 C 355.898 341.812,356.311 341.609,357.326 341.609 C 358.576 341.609,358.689 341.510,358.689 340.417 C 358.689 339.490,358.513 339.225,357.895 339.225 C 357.365 339.225,357.100 338.961,357.100 338.431 C 357.100 337.990,356.835 337.637,356.504 337.637 C 356.177 337.637,355.909 337.368,355.909 337.041 C 355.909 336.710,355.556 336.445,355.114 336.445 C 354.585 336.445,354.320 336.180,354.320 335.650 C 354.320 335.209,354.055 334.856,353.724 334.856 C 353.396 334.856,353.128 334.571,353.128 334.223 C 353.128 333.875,352.771 333.496,352.334 333.382 C 351.897 333.268,351.539 332.927,351.539 332.625 C 351.539 332.323,351.271 332.075,350.943 332.075 C 350.616 332.075,350.348 331.791,350.348 331.442 C 350.348 331.094,349.990 330.716,349.553 330.602 C 349.116 330.487,348.759 330.147,348.759 329.844 C 348.759 329.542,348.491 329.295,348.163 329.295 C 347.835 329.295,347.567 329.010,347.567 328.662 C 347.567 328.314,347.210 327.935,346.773 327.821 C 346.336 327.707,345.978 327.366,345.978 327.064 C 345.978 326.762,345.621 326.514,345.184 326.514 C 344.654 326.514,344.389 326.250,344.389 325.720 C 344.389 325.279,344.124 324.926,343.793 324.926 C 343.466 324.926,343.198 324.657,343.198 324.330 C 343.198 323.999,342.845 323.734,342.403 323.734 C 341.874 323.734,341.609 323.469,341.609 322.939 C 341.609 322.498,341.344 322.145,341.013 322.145 C 340.685 322.145,340.417 321.877,340.417 321.549 C 340.417 321.218,340.064 320.953,339.623 320.953 C 339.093 320.953,338.828 320.689,338.828 320.159 C 338.828 319.718,338.563 319.364,338.232 319.364 C 337.905 319.364,337.637 319.096,337.637 318.769 C 337.637 318.438,337.283 318.173,336.842 318.173 C 336.312 318.173,336.048 317.908,336.048 317.378 C 336.048 316.937,335.783 316.584,335.452 316.584 C 335.124 316.584,334.856 316.316,334.856 315.988 C 334.856 315.657,334.503 315.392,334.062 315.392 C 333.532 315.392,333.267 315.127,333.267 314.598 C 333.267 314.156,333.002 313.803,332.671 313.803 C 332.344 313.803,332.075 313.519,332.075 313.170 C 332.075 312.822,331.718 312.444,331.281 312.330 C 330.844 312.215,330.487 311.875,330.487 311.572 C 330.487 311.270,330.129 311.023,329.692 311.023 C 329.255 311.023,328.898 310.769,328.898 310.459 C 328.898 310.148,328.361 309.777,327.706 309.633 C 327.051 309.489,326.514 309.117,326.514 308.807 C 326.514 308.496,326.157 308.242,325.720 308.242 C 325.190 308.242,324.926 307.977,324.926 307.448 C 324.926 306.918,324.661 306.653,324.131 306.653 C 323.690 306.653,323.337 306.389,323.337 306.058 C 323.337 305.730,323.112 305.462,322.836 305.462 C 322.561 305.462,322.113 305.104,321.840 304.667 C 321.559 304.218,320.914 303.873,320.354 303.873 C 319.739 303.873,319.364 303.647,319.364 303.277 C 319.364 302.949,319.028 302.681,318.616 302.681 C 318.202 302.681,317.775 302.326,317.660 301.887 C 317.509 301.308,317.119 301.092,316.224 301.092 C 315.396 301.092,314.995 300.898,314.995 300.497 C 314.995 300.169,314.733 299.901,314.413 299.901 C 314.093 299.901,313.640 299.543,313.406 299.106 C 313.158 298.642,312.574 298.312,312.002 298.312 C 311.418 298.312,311.023 298.083,311.023 297.744 C 311.023 297.431,310.621 297.098,310.129 297.003 C 309.638 296.909,310.174 296.807,311.321 296.777 C 312.886 296.736,313.406 296.574,313.406 296.127 C 313.406 295.697,313.848 295.531,314.995 295.531 C 316.319 295.531,316.584 295.399,316.584 294.737 C 316.584 294.048,316.849 293.942,318.570 293.942 C 320.071 293.942,320.556 293.797,320.556 293.347 C 320.556 292.930,320.975 292.751,321.946 292.751 C 323.072 292.751,323.337 292.599,323.337 291.956 C 323.337 291.294,323.601 291.162,324.926 291.162 C 326.073 291.162,326.514 290.996,326.514 290.566 C 326.514 290.165,326.916 289.970,327.743 289.970 C 328.638 289.970,329.029 289.754,329.180 289.176 C 329.336 288.579,329.722 288.381,330.732 288.381 C 331.661 288.381,332.075 288.198,332.075 287.786 C 332.075 287.384,332.477 287.190,333.304 287.190 C 334.199 287.190,334.590 286.974,334.741 286.395 C 334.889 285.830,335.283 285.601,336.106 285.601 C 336.769 285.601,337.362 285.346,337.493 285.005 C 337.619 284.677,338.060 284.409,338.473 284.409 C 338.887 284.409,339.583 284.052,340.020 283.615 C 340.457 283.178,340.993 282.820,341.212 282.820 C 341.430 282.820,341.609 282.463,341.609 282.026 C 341.609 281.383,341.874 281.231,342.999 281.231 C 343.970 281.231,344.389 281.052,344.389 280.636 C 344.389 280.240,344.785 280.040,345.567 280.040 C 346.338 280.040,346.891 279.765,347.170 279.245 C 347.404 278.808,347.857 278.451,348.177 278.451 C 348.497 278.451,348.759 278.183,348.759 277.855 C 348.759 277.454,349.160 277.259,349.988 277.259 C 350.882 277.259,351.273 277.043,351.424 276.465 C 351.538 276.028,351.885 275.670,352.194 275.670 C 352.503 275.670,352.859 275.402,352.984 275.074 C 353.110 274.747,353.462 274.479,353.766 274.479 C 354.071 274.479,354.320 274.121,354.320 273.684 C 354.320 273.041,354.585 272.890,355.710 272.890 C 356.681 272.890,357.100 272.710,357.100 272.294 C 357.100 271.966,357.385 271.698,357.733 271.698 C 358.081 271.698,358.460 271.341,358.574 270.904 C 358.688 270.467,359.029 270.109,359.331 270.109 C 359.634 270.109,359.881 269.841,359.881 269.513 C 359.881 269.182,360.234 268.918,360.675 268.918 C 361.205 268.918,361.470 268.653,361.470 268.123 C 361.470 267.682,361.735 267.329,362.066 267.329 C 362.393 267.329,362.661 267.080,362.661 266.777 C 362.661 266.461,363.255 266.114,364.052 265.965 C 364.884 265.809,365.442 265.472,365.442 265.126 C 365.442 264.808,365.799 264.548,366.236 264.548 C 366.673 264.548,367.031 264.378,367.031 264.169 C 367.031 263.676,368.939 261.768,369.432 261.768 C 369.641 261.768,369.811 261.410,369.811 260.973 C 369.811 260.525,370.076 260.179,370.420 260.179 C 370.754 260.179,371.131 259.911,371.257 259.583 C 371.382 259.255,371.734 258.987,372.039 258.987 C 372.343 258.987,372.592 258.630,372.592 258.193 C 372.592 257.744,372.857 257.398,373.200 257.398 C 373.535 257.398,373.911 257.130,374.037 256.802 C 374.163 256.475,374.515 256.207,374.819 256.207 C 375.123 256.207,375.372 255.849,375.372 255.412 C 375.372 254.971,375.637 254.618,375.968 254.618 C 376.296 254.618,376.564 254.350,376.564 254.022 C 376.564 253.694,376.849 253.426,377.197 253.426 C 377.545 253.426,377.919 253.085,378.028 252.668 C 378.137 252.252,378.567 251.821,378.984 251.712 C 379.524 251.571,379.742 251.160,379.742 250.285 C 379.742 249.458,379.936 249.057,380.338 249.057 C 380.665 249.057,380.933 248.788,380.933 248.461 C 380.933 248.133,381.218 247.865,381.566 247.865 C 381.915 247.865,382.293 247.507,382.407 247.071 C 382.522 246.634,382.862 246.276,383.165 246.276 C 383.467 246.276,383.714 246.014,383.714 245.694 C 383.714 245.374,384.071 244.921,384.508 244.687 C 384.973 244.439,385.303 243.855,385.303 243.283 C 385.303 242.677,385.530 242.304,385.899 242.304 C 386.230 242.304,386.495 241.951,386.495 241.509 C 386.495 240.980,386.759 240.715,387.289 240.715 C 387.932 240.715,388.083 240.450,388.083 239.325 C 388.083 238.199,388.235 237.934,388.878 237.934 C 389.407 237.934,389.672 237.670,389.672 237.140 C 389.672 236.699,389.937 236.346,390.268 236.346 C 390.684 236.346,390.864 235.926,390.864 234.955 C 390.864 233.830,391.015 233.565,391.658 233.565 C 392.095 233.565,392.453 233.316,392.453 233.012 C 392.453 232.707,392.721 232.355,393.049 232.230 C 393.390 232.099,393.644 231.506,393.644 230.843 C 393.644 230.020,393.874 229.626,394.439 229.478 C 395.017 229.326,395.233 228.936,395.233 228.041 C 395.233 227.214,395.428 226.812,395.829 226.812 C 396.241 226.812,396.425 226.398,396.425 225.468 C 396.425 224.446,396.621 224.073,397.243 223.911 C 398.802 223.503,398.181 219.896,396.524 219.737 C 395.725 219.659,395.233 219.395,395.233 219.041 C 395.233 218.614,394.683 218.471,393.049 218.471 C 391.129 218.471,390.864 218.374,390.864 217.676 C 390.864 216.978,390.599 216.882,388.679 216.882 C 387.002 216.882,386.495 216.743,386.495 216.286 C 386.495 215.794,385.766 215.690,382.324 215.690 C 378.418 215.690,378.153 215.640,378.153 214.896 C 378.153 214.139,377.888 214.101,372.592 214.101 C 367.913 214.101,367.031 214.007,367.031 213.505 C 367.031 212.607,343.686 212.607,343.341 213.505 C 343.152 213.999,342.070 214.101,337.025 214.101 C 331.286 214.101,330.923 214.147,330.685 214.896 C 330.454 215.623,330.084 215.690,326.289 215.690 C 322.870 215.690,322.145 215.794,322.145 216.286 C 322.145 216.759,321.571 216.882,319.364 216.882 C 316.849 216.882,316.584 216.806,316.584 216.087 C 316.584 215.646,316.849 215.293,317.180 215.293 C 317.507 215.293,317.776 215.068,317.776 214.793 C 317.776 214.518,318.133 214.069,318.570 213.796 C 319.019 213.516,319.364 212.870,319.364 212.310 C 319.364 211.696,319.590 211.321,319.960 211.321 C 320.376 211.321,320.556 210.901,320.556 209.930 C 320.556 208.805,320.707 208.540,321.351 208.540 C 321.880 208.540,322.145 208.275,322.145 207.746 C 322.145 207.304,322.410 206.951,322.741 206.951 C 323.157 206.951,323.337 206.532,323.337 205.561 C 323.337 204.436,323.488 204.171,324.131 204.171 C 324.774 204.171,324.926 203.906,324.926 202.781 C 324.926 201.655,325.077 201.390,325.720 201.390 C 326.235 201.390,326.514 201.125,326.514 200.638 C 326.514 200.225,326.783 199.783,327.110 199.658 C 327.451 199.527,327.706 198.934,327.706 198.271 C 327.706 197.448,327.935 197.054,328.500 196.906 C 329.079 196.754,329.295 196.364,329.295 195.469 C 329.295 194.642,329.490 194.240,329.891 194.240 C 330.307 194.240,330.487 193.821,330.487 192.850 C 330.487 191.725,330.638 191.460,331.281 191.460 C 331.924 191.460,332.075 191.195,332.075 190.070 C 332.075 189.099,332.255 188.679,332.671 188.679 C 333.087 188.679,333.267 188.260,333.267 187.289 C 333.267 186.164,333.418 185.899,334.062 185.899 C 334.705 185.899,334.856 185.634,334.856 184.508 C 334.856 183.537,335.036 183.118,335.452 183.118 C 335.868 183.118,336.048 182.699,336.048 181.728 C 336.048 180.602,336.199 180.338,336.842 180.338 C 337.485 180.338,337.637 180.073,337.637 178.947 C 337.637 177.976,337.816 177.557,338.232 177.557 C 338.645 177.557,338.828 177.143,338.828 176.213 C 338.828 175.203,339.026 174.818,339.623 174.661 C 340.193 174.512,340.417 174.120,340.417 173.267 C 340.417 172.579,340.667 171.985,341.013 171.852 C 341.433 171.691,341.609 171.035,341.609 169.625 C 341.609 167.891,341.714 167.627,342.403 167.627 C 343.046 167.627,343.198 167.362,343.198 166.236 C 343.198 165.265,343.377 164.846,343.793 164.846 C 344.244 164.846,344.389 164.361,344.389 162.860 C 344.389 161.139,344.495 160.874,345.184 160.874 C 345.816 160.874,345.978 160.609,345.978 159.579 C 345.978 158.715,346.242 158.120,346.773 157.788 C 347.375 157.412,347.567 156.862,347.567 155.508 C 347.567 154.187,347.722 153.724,348.163 153.724 C 348.620 153.724,348.759 153.216,348.759 151.539 C 348.759 149.619,348.855 149.355,349.553 149.355 C 350.191 149.355,350.348 149.090,350.348 148.007 C 350.348 147.175,350.576 146.571,350.943 146.430 C 351.364 146.269,351.539 145.613,351.539 144.203 C 351.539 142.766,351.694 142.205,352.089 142.205 C 352.686 142.205,353.114 141.029,353.123 139.367 C 353.126 138.790,353.396 138.214,353.724 138.089 C 354.168 137.918,354.320 137.211,354.320 135.312 C 354.320 133.098,354.424 132.737,355.114 132.556 C 355.777 132.383,355.909 132.014,355.909 130.325 C 355.909 128.792,356.053 128.302,356.504 128.302 C 356.977 128.302,357.100 127.728,357.100 125.521 C 357.100 123.006,357.176 122.741,357.895 122.741 C 358.614 122.741,358.689 122.476,358.689 119.960 C 358.689 117.754,358.812 117.180,359.285 117.180 C 359.757 117.180,359.881 116.611,359.881 114.446 C 359.881 112.045,359.978 111.686,360.675 111.504 C 361.392 111.316,361.470 110.962,361.470 107.882 C 361.470 105.113,361.582 104.469,362.066 104.469 C 362.548 104.469,362.661 103.830,362.661 101.106 C 362.661 98.150,362.757 97.693,363.456 97.319 C 364.179 96.932,364.250 96.487,364.250 92.340 C 364.250 88.556,364.351 87.786,364.846 87.786 C 365.353 87.786,365.442 86.753,365.442 80.880 C 365.442 74.310,365.480 73.965,366.236 73.768 C 366.815 73.616,367.031 73.226,367.031 72.331 L 367.031 71.102 363.654 71.102 C 360.918 71.102,360.278 71.215,360.278 71.698 C 360.278 72.117,359.855 72.294,358.851 72.294 C 357.757 72.294,357.375 72.480,357.215 73.088 C 357.043 73.746,356.674 73.883,355.068 73.883 C 353.608 73.883,353.128 74.030,353.128 74.479 C 353.128 74.895,352.709 75.074,351.738 75.074 C 350.612 75.074,350.348 75.226,350.348 75.869 C 350.348 76.558,350.083 76.663,348.349 76.663 C 346.939 76.663,346.283 76.839,346.122 77.259 C 345.996 77.587,345.569 77.855,345.174 77.855 C 344.030 77.855,343.198 78.291,343.198 78.891 C 343.198 79.258,342.731 79.444,341.807 79.444 C 340.836 79.444,340.417 79.624,340.417 80.040 C 340.417 80.441,340.016 80.636,339.188 80.636 C 338.293 80.636,337.903 80.852,337.752 81.430 C 337.596 82.027,337.210 82.224,336.200 82.224 C 335.270 82.224,334.856 82.408,334.856 82.820 C 334.856 83.221,334.455 83.416,333.627 83.416 C 332.732 83.416,332.342 83.632,332.191 84.211 C 332.034 84.807,331.649 85.005,330.639 85.005 C 329.560 85.005,329.295 85.162,329.295 85.799 C 329.295 86.443,329.030 86.594,327.905 86.594 C 326.934 86.594,326.514 86.774,326.514 87.190 C 326.514 87.591,326.113 87.786,325.286 87.786 C 324.391 87.786,324.000 88.001,323.849 88.580 C 323.734 89.020,323.307 89.374,322.893 89.374 C 322.482 89.374,322.145 89.643,322.145 89.970 C 322.145 90.386,321.726 90.566,320.755 90.566 C 319.629 90.566,319.364 90.717,319.364 91.360 C 319.364 91.980,319.100 92.155,318.160 92.155 C 317.494 92.155,316.861 92.404,316.743 92.712 C 316.625 93.018,316.184 93.359,315.762 93.469 C 315.340 93.579,314.995 93.954,314.995 94.302 C 314.995 94.742,314.628 94.935,313.791 94.935 C 313.087 94.935,312.492 95.183,312.358 95.531 C 312.232 95.859,311.881 96.127,311.576 96.127 C 311.272 96.127,311.023 96.485,311.023 96.922 C 311.023 97.565,310.758 97.716,309.633 97.716 C 308.714 97.716,308.242 97.902,308.242 98.265 C 308.242 98.568,307.885 98.908,307.448 99.023 C 307.011 99.137,306.653 99.515,306.653 99.864 C 306.653 100.322,306.270 100.497,305.263 100.497 C 304.292 100.497,303.873 100.676,303.873 101.092 C 303.873 101.420,303.605 101.688,303.277 101.688 C 302.946 101.688,302.681 102.041,302.681 102.483 C 302.681 103.102,302.416 103.277,301.477 103.277 C 300.773 103.277,300.178 103.525,300.044 103.873 C 299.919 104.201,299.550 104.469,299.225 104.469 C 298.900 104.469,298.541 104.826,298.427 105.263 C 298.313 105.700,297.972 106.058,297.670 106.058 C 297.367 106.058,297.120 106.415,297.120 106.852 C 297.120 107.496,296.855 107.646,295.717 107.646 C 294.837 107.646,294.230 107.868,294.086 108.242 C 293.960 108.570,293.608 108.838,293.304 108.838 C 293.000 108.838,292.751 109.196,292.751 109.633 C 292.751 110.162,292.486 110.427,291.956 110.427 C 291.515 110.427,291.162 110.692,291.162 111.023 C 291.162 111.391,290.788 111.619,290.183 111.619 C 289.610 111.619,289.027 111.949,288.779 112.413 C 288.545 112.850,288.092 113.208,287.772 113.208 C 287.452 113.208,287.190 113.476,287.190 113.803 C 287.190 114.134,286.837 114.399,286.395 114.399 C 285.866 114.399,285.601 114.664,285.601 115.194 C 285.601 115.635,285.336 115.988,285.005 115.988 C 284.677 115.988,284.409 116.256,284.409 116.584 C 284.409 116.985,284.008 117.180,283.180 117.180 C 282.286 117.180,281.895 117.396,281.744 117.974 C 281.629 118.411,281.333 118.772,281.086 118.775 C 280.516 118.784,278.848 120.523,278.848 121.109 C 278.848 121.351,278.491 121.549,278.054 121.549 C 277.612 121.549,277.259 121.814,277.259 122.145 C 277.259 122.473,276.991 122.741,276.663 122.741 C 276.332 122.741,276.068 123.094,276.068 123.535 C 276.068 124.065,275.803 124.330,275.273 124.330 C 274.832 124.330,274.479 124.595,274.479 124.926 C 274.479 125.253,274.194 125.521,273.846 125.521 C 273.497 125.521,273.119 125.879,273.005 126.316 C 272.891 126.753,272.550 127.110,272.248 127.110 C 271.945 127.110,271.698 127.468,271.698 127.905 C 271.698 128.434,271.433 128.699,270.904 128.699 C 270.462 128.699,270.109 128.964,270.109 129.295 C 270.109 129.623,269.841 129.891,269.513 129.891 C 269.182 129.891,268.918 130.244,268.918 130.685 C 268.918 131.215,268.653 131.480,268.123 131.480 C 267.682 131.480,267.329 131.744,267.329 132.075 C 267.329 132.403,267.061 132.671,266.733 132.671 C 266.402 132.671,266.137 133.024,266.137 133.466 C 266.137 133.995,265.872 134.260,265.343 134.260 C 264.901 134.260,264.548 134.525,264.548 134.856 C 264.548 135.184,264.280 135.452,263.952 135.452 C 263.621 135.452,263.357 135.805,263.357 136.246 C 263.357 136.776,263.092 137.041,262.562 137.041 C 262.121 137.041,261.768 137.306,261.768 137.637 C 261.768 137.964,261.500 138.232,261.172 138.232 C 260.841 138.232,260.576 138.585,260.576 139.027 C 260.576 139.556,260.311 139.821,259.782 139.821 C 259.340 139.821,258.987 140.086,258.987 140.417 C 258.987 140.745,258.719 141.013,258.391 141.013 C 258.060 141.013,257.795 141.366,257.795 141.807 C 257.795 142.337,257.531 142.602,257.001 142.602 C 256.560 142.602,256.207 142.867,256.207 143.198 C 256.207 143.525,255.938 143.793,255.611 143.793 C 255.280 143.793,255.015 144.147,255.015 144.588 C 255.015 145.118,254.750 145.382,254.220 145.382 C 253.784 145.382,253.426 145.567,253.426 145.792 C 253.426 146.017,252.800 146.775,252.036 147.477 C 251.092 148.344,250.645 149.105,250.645 149.848 C 250.645 150.679,250.453 150.943,249.851 150.943 C 249.321 150.943,249.057 151.208,249.057 151.738 C 249.057 152.179,248.792 152.532,248.461 152.532 C 248.133 152.532,247.865 152.780,247.865 153.082 C 247.865 153.384,247.507 153.725,247.071 153.839 C 246.634 153.953,246.276 154.332,246.276 154.680 C 246.276 155.028,246.008 155.313,245.680 155.313 C 245.353 155.313,245.084 155.538,245.084 155.813 C 245.084 156.088,244.727 156.537,244.290 156.810 C 243.460 157.328,243.320 152.156,243.494 127.403 C 243.527 122.812,243.435 121.898,242.918 121.700 C 242.397 121.500,242.304 120.439,242.304 114.717 C 242.304 108.303,242.265 107.959,241.509 107.762 C 240.769 107.568,240.715 107.220,240.715 102.635 C 240.715 97.981,240.672 97.716,239.921 97.716 C 239.177 97.716,239.126 97.451,239.126 93.545 C 239.126 90.103,239.022 89.374,238.530 89.374 C 238.045 89.374,237.934 88.712,237.934 85.799 C 237.934 82.489,237.876 82.224,237.140 82.224 C 236.404 82.224,236.346 81.960,236.346 78.649 C 236.346 75.737,236.235 75.074,235.750 75.074 C 235.280 75.074,235.154 74.519,235.154 72.455 C 235.154 70.170,235.053 69.810,234.359 69.629 C 233.669 69.448,233.565 69.087,233.565 66.873 C 233.565 64.974,233.413 64.266,232.969 64.096 C 232.553 63.936,232.373 63.288,232.373 61.951 C 232.373 60.383,232.229 59.988,231.579 59.782 C 230.926 59.574,230.785 59.181,230.785 57.570 C 230.785 56.093,230.638 55.611,230.189 55.611 C 229.737 55.611,229.593 55.121,229.593 53.587 C 229.593 51.898,229.462 51.530,228.798 51.356 C 228.141 51.184,228.004 50.815,228.004 49.209 C 228.004 47.749,227.856 47.269,227.408 47.269 C 227.002 47.269,226.811 46.858,226.807 45.978 C 226.799 44.091,226.399 42.900,225.773 42.900 C 225.410 42.900,225.223 42.428,225.223 41.509 C 225.223 40.538,225.044 40.119,224.628 40.119 C 224.211 40.119,224.032 39.700,224.032 38.729 C 224.032 37.603,223.880 37.339,223.237 37.339 C 222.551 37.339,222.443 37.074,222.443 35.395 C 222.443 34.034,222.264 33.383,221.847 33.223 C 221.519 33.097,221.251 32.646,221.251 32.220 C 221.251 31.024,220.825 30.189,220.216 30.189 C 219.862 30.189,219.662 29.745,219.662 28.960 C 219.662 28.065,219.446 27.675,218.868 27.523 C 218.271 27.367,218.073 26.981,218.073 25.972 C 218.073 25.042,217.890 24.628,217.478 24.628 C 217.076 24.628,216.882 24.226,216.882 23.399 C 216.882 22.504,216.666 22.113,216.087 21.962 C 215.529 21.816,215.293 21.420,215.293 20.629 C 215.293 20.010,215.056 19.360,214.766 19.186 C 214.477 19.011,214.125 18.555,213.984 18.173 C 213.844 17.790,213.455 17.478,213.121 17.478 C 212.708 17.478,212.512 17.090,212.512 16.274 C 212.512 15.570,212.265 14.974,211.917 14.841 C 211.589 14.715,211.321 14.186,211.321 13.665 C 211.321 13.144,210.963 12.494,210.526 12.222 C 210.089 11.949,209.732 11.500,209.732 11.225 C 209.732 10.950,209.484 10.725,209.180 10.725 C 208.864 10.725,208.517 10.131,208.368 9.335 C 208.212 8.502,207.875 7.944,207.529 7.944 C 207.211 7.944,206.951 7.587,206.951 7.150 C 206.951 6.709,206.687 6.356,206.356 6.356 C 206.028 6.356,205.760 6.087,205.760 5.760 C 205.760 5.429,205.407 5.164,204.965 5.164 C 204.376 5.164,204.171 4.899,204.171 4.140 C 204.171 2.322,201.394 -0.000,199.221 -0.000 C 198.229 -0.000,197.418 0.158,197.418 0.351 M200.199 31.579 C 200.199 32.550,200.378 32.969,200.794 32.969 C 201.238 32.969,201.390 33.437,201.390 34.794 C 201.390 36.285,201.536 36.657,202.185 36.826 C 202.783 36.983,202.979 37.368,202.979 38.390 C 202.979 39.230,203.206 39.834,203.575 39.976 C 203.921 40.108,204.171 40.702,204.171 41.391 C 204.171 42.243,204.395 42.635,204.965 42.785 C 205.623 42.957,205.760 43.326,205.760 44.932 C 205.760 46.392,205.907 46.872,206.356 46.872 C 206.784 46.872,206.951 47.310,206.951 48.428 C 206.951 50.369,207.272 51.241,207.987 51.241 C 208.378 51.241,208.540 51.768,208.540 53.041 C 208.540 54.275,208.728 54.913,209.136 55.070 C 209.489 55.205,209.734 55.808,209.737 56.547 C 209.745 58.394,210.150 59.583,210.771 59.583 C 211.167 59.583,211.321 60.148,211.321 61.606 C 211.321 63.295,211.452 63.664,212.115 63.837 C 212.773 64.009,212.910 64.379,212.910 65.985 C 212.910 67.444,213.057 67.925,213.505 67.925 C 213.978 67.925,214.101 68.495,214.101 70.678 C 214.101 73.083,214.202 73.464,214.896 73.684 C 215.582 73.902,215.690 74.285,215.690 76.504 C 215.690 78.420,215.841 79.130,216.286 79.300 C 216.731 79.471,216.882 80.182,216.882 82.106 C 216.882 84.348,216.985 84.709,217.676 84.890 C 218.391 85.077,218.471 85.432,218.471 88.428 C 218.471 91.123,218.584 91.758,219.067 91.758 C 219.550 91.758,219.662 92.402,219.662 95.171 C 219.662 98.251,219.740 98.605,220.457 98.793 C 221.187 98.983,221.251 99.334,221.251 103.125 C 221.251 106.526,221.356 107.249,221.847 107.249 C 222.344 107.249,222.443 108.048,222.443 112.053 C 222.443 116.523,222.498 116.871,223.237 117.065 C 223.993 117.262,224.032 117.606,224.032 124.177 C 224.032 130.050,224.121 131.082,224.628 131.082 C 225.151 131.082,225.223 134.084,225.223 155.710 C 225.223 177.336,225.151 180.338,224.628 180.338 C 224.120 180.338,224.032 181.397,224.032 187.488 C 224.032 194.373,224.002 194.638,223.237 194.638 C 222.481 194.638,222.443 194.902,222.443 200.199 C 222.443 204.877,222.348 205.760,221.847 205.760 C 221.356 205.760,221.251 206.483,221.251 209.884 C 221.251 213.675,221.187 214.025,220.457 214.216 C 219.729 214.407,219.662 214.758,219.662 218.391 C 219.662 221.551,219.541 222.404,219.067 222.587 C 218.602 222.765,218.471 223.553,218.471 226.158 C 218.471 229.166,218.391 229.521,217.676 229.708 C 216.672 229.971,216.500 233.945,217.459 234.741 C 218.405 235.527,219.662 234.867,219.662 233.585 C 219.662 232.800,219.900 232.404,220.457 232.258 C 221.035 232.107,221.251 231.716,221.251 230.822 C 221.251 229.994,221.446 229.593,221.847 229.593 C 222.259 229.593,222.443 229.179,222.443 228.249 C 222.443 227.239,222.640 226.853,223.237 226.697 C 223.808 226.548,224.032 226.155,224.032 225.303 C 224.032 224.615,224.282 224.021,224.628 223.888 C 224.969 223.757,225.223 223.164,225.223 222.502 C 225.223 221.678,225.453 221.284,226.018 221.136 C 226.626 220.977,226.812 220.594,226.812 219.501 C 226.812 218.497,226.989 218.073,227.408 218.073 C 227.824 218.073,228.004 217.654,228.004 216.683 C 228.004 215.558,228.155 215.293,228.798 215.293 C 229.235 215.293,229.593 215.044,229.593 214.740 C 229.593 214.435,229.861 214.083,230.189 213.958 C 230.521 213.830,230.785 213.239,230.785 212.620 C 230.785 211.942,231.093 211.319,231.579 211.016 C 232.028 210.735,232.373 210.089,232.373 209.530 C 232.373 208.915,232.599 208.540,232.969 208.540 C 233.381 208.540,233.565 208.126,233.565 207.196 C 233.565 206.186,233.763 205.801,234.359 205.645 C 234.796 205.530,235.154 205.152,235.154 204.804 C 235.154 204.456,235.422 204.171,235.750 204.171 C 236.166 204.171,236.346 203.752,236.346 202.781 C 236.346 201.655,236.497 201.390,237.140 201.390 C 237.577 201.390,237.934 201.141,237.934 200.837 C 237.934 200.533,238.203 200.181,238.530 200.055 C 238.904 199.911,239.126 199.304,239.126 198.424 C 239.126 197.286,239.276 197.021,239.921 197.021 C 240.357 197.021,240.715 196.774,240.715 196.471 C 240.715 196.169,241.072 195.828,241.509 195.714 C 242.088 195.563,242.304 195.172,242.304 194.278 C 242.304 193.450,242.498 193.049,242.900 193.049 C 243.231 193.049,243.496 192.696,243.496 192.254 C 243.496 191.725,243.760 191.460,244.290 191.460 C 244.727 191.460,245.084 191.211,245.084 190.906 C 245.084 190.602,245.353 190.250,245.680 190.124 C 246.021 189.994,246.276 189.401,246.276 188.738 C 246.276 187.914,246.505 187.520,247.071 187.372 C 247.507 187.258,247.865 186.880,247.865 186.532 C 247.865 186.184,248.133 185.899,248.461 185.899 C 248.877 185.899,249.057 185.479,249.057 184.508 C 249.057 183.383,249.208 183.118,249.851 183.118 C 250.292 183.118,250.645 182.853,250.645 182.522 C 250.645 182.195,250.914 181.927,251.241 181.927 C 251.569 181.927,251.837 181.590,251.837 181.178 C 251.837 180.764,252.192 180.338,252.632 180.223 C 253.210 180.071,253.426 179.681,253.426 178.786 C 253.426 177.958,253.621 177.557,254.022 177.557 C 254.353 177.557,254.618 177.204,254.618 176.763 C 254.618 176.233,254.882 175.968,255.412 175.968 C 255.853 175.968,256.207 175.703,256.207 175.372 C 256.207 175.045,256.475 174.777,256.802 174.777 C 257.130 174.777,257.398 174.440,257.398 174.028 C 257.398 173.614,257.753 173.188,258.193 173.073 C 258.771 172.921,258.987 172.531,258.987 171.636 C 258.987 170.809,259.182 170.407,259.583 170.407 C 259.911 170.407,260.179 170.139,260.179 169.811 C 260.179 169.480,260.532 169.215,260.973 169.215 C 261.503 169.215,261.768 168.951,261.768 168.421 C 261.768 167.891,262.032 167.627,262.562 167.627 C 263.003 167.627,263.357 167.362,263.357 167.031 C 263.357 166.703,263.625 166.435,263.952 166.435 C 264.283 166.435,264.548 166.082,264.548 165.641 C 264.548 165.204,264.808 164.846,265.126 164.846 C 265.472 164.846,265.809 164.288,265.965 163.456 C 266.114 162.660,266.461 162.066,266.777 162.066 C 267.080 162.066,267.329 161.797,267.329 161.470 C 267.329 161.142,267.614 160.874,267.962 160.874 C 268.310 160.874,268.688 160.516,268.802 160.079 C 268.917 159.643,269.258 159.285,269.560 159.285 C 269.862 159.285,270.109 159.017,270.109 158.689 C 270.109 158.361,270.394 158.093,270.742 158.093 C 271.090 158.093,271.469 157.736,271.583 157.299 C 271.697 156.862,272.038 156.504,272.340 156.504 C 272.642 156.504,272.890 156.147,272.890 155.710 C 272.890 155.180,273.155 154.916,273.684 154.916 C 274.126 154.916,274.479 154.651,274.479 154.320 C 274.479 153.992,274.747 153.724,275.074 153.724 C 275.405 153.724,275.670 153.371,275.670 152.929 C 275.670 152.400,275.935 152.135,276.465 152.135 C 276.906 152.135,277.259 151.870,277.259 151.539 C 277.259 151.212,277.527 150.943,277.855 150.943 C 278.186 150.943,278.451 150.590,278.451 150.149 C 278.451 149.619,278.716 149.355,279.245 149.355 C 279.687 149.355,280.040 149.090,280.040 148.759 C 280.040 148.431,280.308 148.163,280.636 148.163 C 280.967 148.163,281.231 147.810,281.231 147.368 C 281.231 146.839,281.496 146.574,282.026 146.574 C 282.467 146.574,282.820 146.309,282.820 145.978 C 282.820 145.650,283.105 145.382,283.453 145.382 C 283.801 145.382,284.180 145.025,284.294 144.588 C 284.408 144.151,284.749 143.793,285.051 143.793 C 285.354 143.793,285.601 143.525,285.601 143.198 C 285.601 142.870,285.886 142.602,286.234 142.602 C 286.582 142.602,286.960 142.244,287.075 141.807 C 287.219 141.254,287.616 141.013,288.381 141.013 C 289.146 141.013,289.543 140.771,289.688 140.218 C 289.802 139.782,290.181 139.424,290.529 139.424 C 290.877 139.424,291.162 139.156,291.162 138.828 C 291.162 138.500,291.430 138.232,291.758 138.232 C 292.085 138.232,292.354 137.964,292.354 137.637 C 292.354 137.309,292.638 137.041,292.987 137.041 C 293.335 137.041,293.713 136.683,293.827 136.246 C 293.942 135.807,294.369 135.452,294.783 135.452 C 295.266 135.452,295.531 135.171,295.531 134.657 C 295.531 134.216,295.796 133.863,296.127 133.863 C 296.455 133.863,296.723 133.595,296.723 133.267 C 296.723 132.936,297.076 132.671,297.517 132.671 C 298.047 132.671,298.312 132.406,298.312 131.877 C 298.312 131.257,298.577 131.082,299.516 131.082 C 300.220 131.082,300.815 130.835,300.949 130.487 C 301.074 130.159,301.426 129.891,301.731 129.891 C 302.035 129.891,302.284 129.533,302.284 129.096 C 302.284 128.567,302.549 128.302,303.078 128.302 C 303.520 128.302,303.873 128.037,303.873 127.706 C 303.873 127.375,304.226 127.110,304.667 127.110 C 305.197 127.110,305.462 126.845,305.462 126.316 C 305.462 125.698,305.727 125.521,306.653 125.521 C 307.403 125.521,307.845 125.318,307.845 124.972 C 307.845 124.670,308.203 124.329,308.640 124.215 C 309.076 124.100,309.434 123.722,309.434 123.374 C 309.434 123.006,309.766 122.741,310.228 122.741 C 310.665 122.741,311.023 122.487,311.023 122.177 C 311.023 121.866,311.559 121.494,312.214 121.351 C 312.870 121.207,313.406 120.835,313.406 120.525 C 313.406 120.214,313.764 119.960,314.201 119.960 C 314.642 119.960,314.995 119.695,314.995 119.364 C 314.995 119.033,315.348 118.769,315.789 118.769 C 316.319 118.769,316.584 118.504,316.584 117.974 C 316.584 117.354,316.849 117.180,317.788 117.180 C 318.492 117.180,319.087 116.932,319.221 116.584 C 319.347 116.256,319.698 115.988,320.003 115.988 C 320.307 115.988,320.556 115.631,320.556 115.194 C 320.556 114.570,320.821 114.399,321.785 114.399 C 322.680 114.399,323.070 114.183,323.222 113.605 C 323.337 113.165,323.763 112.810,324.177 112.810 C 324.589 112.810,324.926 112.542,324.926 112.214 C 324.926 111.887,325.268 111.619,325.687 111.619 C 326.871 111.619,327.706 111.190,327.706 110.583 C 327.706 110.279,328.064 110.030,328.500 110.030 C 328.942 110.030,329.295 109.765,329.295 109.434 C 329.295 109.065,329.669 108.838,330.274 108.838 C 330.847 108.838,331.430 108.508,331.678 108.044 C 331.912 107.607,332.365 107.249,332.685 107.249 C 333.005 107.249,333.267 106.981,333.267 106.653 C 333.267 106.237,333.686 106.058,334.657 106.058 C 335.783 106.058,336.048 105.906,336.048 105.263 C 336.048 104.620,336.312 104.469,337.438 104.469 C 338.357 104.469,338.828 104.282,338.828 103.919 C 338.828 103.617,339.186 103.276,339.623 103.162 C 340.060 103.048,340.417 102.669,340.417 102.321 C 340.417 101.863,340.800 101.688,341.807 101.688 C 342.778 101.688,343.198 101.508,343.198 101.092 C 343.198 100.765,343.421 100.494,343.694 100.491 C 343.967 100.488,344.593 100.378,345.084 100.246 C 345.934 100.019,345.978 100.118,345.978 102.238 C 345.978 103.956,345.841 104.469,345.382 104.469 C 344.906 104.469,344.786 105.065,344.786 107.448 C 344.786 110.162,344.716 110.427,343.992 110.427 C 343.304 110.427,343.198 110.692,343.198 112.413 C 343.198 113.914,343.052 114.399,342.602 114.399 C 342.146 114.399,342.006 114.902,342.006 116.538 C 342.006 118.342,341.882 118.708,341.212 118.884 C 340.518 119.065,340.417 119.426,340.417 121.711 C 340.417 123.774,340.291 124.330,339.821 124.330 C 339.364 124.330,339.225 124.837,339.225 126.514 C 339.225 128.434,339.129 128.699,338.431 128.699 C 337.745 128.699,337.637 128.964,337.637 130.639 C 337.637 132.245,337.500 132.614,336.842 132.786 C 336.271 132.936,336.048 133.328,336.048 134.180 C 336.048 134.869,335.797 135.463,335.452 135.595 C 335.034 135.756,334.856 136.407,334.856 137.776 C 334.856 139.395,334.720 139.764,334.062 139.936 C 333.416 140.105,333.267 140.478,333.267 141.926 C 333.267 143.144,333.078 143.781,332.671 143.937 C 332.297 144.081,332.075 144.688,332.075 145.568 C 332.075 146.498,331.890 146.971,331.526 146.971 C 330.924 146.971,330.500 148.150,330.492 149.851 C 330.489 150.555,330.275 150.943,329.891 150.943 C 329.479 150.943,329.295 151.358,329.295 152.287 C 329.295 153.297,329.097 153.683,328.500 153.839 C 327.837 154.012,327.706 154.381,327.706 156.070 C 327.706 157.604,327.562 158.093,327.110 158.093 C 326.694 158.093,326.514 158.513,326.514 159.484 C 326.514 160.609,326.363 160.874,325.720 160.874 C 325.077 160.874,324.926 161.139,324.926 162.264 C 324.926 163.235,324.746 163.654,324.330 163.654 C 323.917 163.654,323.734 164.069,323.734 164.998 C 323.734 166.008,323.536 166.394,322.939 166.550 C 322.361 166.701,322.145 167.092,322.145 167.987 C 322.145 168.814,321.950 169.215,321.549 169.215 C 321.135 169.215,320.953 169.632,320.953 170.579 C 320.953 171.594,320.750 172.007,320.159 172.195 C 319.602 172.371,319.364 172.796,319.364 173.612 C 319.364 174.382,319.163 174.777,318.769 174.777 C 318.356 174.777,318.173 175.191,318.173 176.121 C 318.173 177.130,317.975 177.516,317.378 177.672 C 316.818 177.819,316.584 178.214,316.584 179.013 C 316.584 179.716,316.282 180.335,315.789 180.643 C 315.353 180.916,314.995 181.565,314.995 182.086 C 314.995 182.607,314.727 183.136,314.399 183.262 C 314.058 183.393,313.803 183.986,313.803 184.648 C 313.803 185.472,313.574 185.866,313.009 186.014 C 312.430 186.165,312.214 186.556,312.214 187.450 C 312.214 188.278,312.020 188.679,311.619 188.679 C 311.288 188.679,311.023 189.032,311.023 189.474 C 311.023 189.911,310.774 190.268,310.470 190.268 C 309.862 190.268,309.434 191.103,309.434 192.287 C 309.434 192.706,309.166 193.049,308.838 193.049 C 308.422 193.049,308.242 193.468,308.242 194.439 C 308.242 195.564,308.091 195.829,307.448 195.829 C 306.918 195.829,306.653 196.094,306.653 196.624 C 306.653 197.065,306.389 197.418,306.058 197.418 C 305.641 197.418,305.462 197.837,305.462 198.808 C 305.462 199.934,305.310 200.199,304.667 200.199 C 304.138 200.199,303.873 200.463,303.873 200.993 C 303.873 201.434,303.608 201.787,303.277 201.787 C 302.885 201.787,302.681 202.180,302.681 202.933 C 302.681 203.744,302.450 204.139,301.887 204.286 C 301.450 204.400,301.092 204.759,301.092 205.084 C 301.092 205.409,300.824 205.778,300.497 205.903 C 300.148 206.037,299.901 206.632,299.901 207.336 C 299.901 208.275,299.726 208.540,299.106 208.540 C 298.577 208.540,298.312 208.805,298.312 209.335 C 298.312 209.776,298.047 210.129,297.716 210.129 C 297.300 210.129,297.120 210.548,297.120 211.519 C 297.120 212.645,296.969 212.910,296.326 212.910 C 295.889 212.910,295.531 213.157,295.531 213.459 C 295.531 213.761,295.174 214.102,294.737 214.216 C 294.300 214.331,293.942 214.690,293.942 215.015 C 293.942 215.339,293.674 215.708,293.347 215.834 C 292.998 215.967,292.751 216.563,292.751 217.267 C 292.751 218.206,292.576 218.471,291.956 218.471 C 291.515 218.471,291.162 218.736,291.162 219.067 C 291.162 219.394,290.894 219.662,290.566 219.662 C 290.235 219.662,289.970 220.015,289.970 220.457 C 289.970 220.894,289.710 221.251,289.392 221.251 C 289.046 221.251,288.710 221.809,288.554 222.642 C 288.404 223.438,288.057 224.032,287.741 224.032 C 287.438 224.032,287.190 224.279,287.190 224.581 C 287.190 224.884,286.832 225.224,286.395 225.339 C 285.958 225.453,285.601 225.831,285.601 226.179 C 285.601 226.527,285.333 226.812,285.005 226.812 C 284.677 226.812,284.409 227.068,284.409 227.381 C 284.409 227.694,284.052 228.064,283.615 228.203 C 283.178 228.341,282.820 228.633,282.820 228.852 C 282.820 229.070,282.195 229.839,281.430 230.560 C 280.525 231.413,280.040 232.237,280.040 232.917 C 280.040 233.581,279.823 233.962,279.444 233.962 C 279.116 233.962,278.848 234.230,278.848 234.558 C 278.848 234.889,278.495 235.154,278.054 235.154 C 277.524 235.154,277.259 235.419,277.259 235.948 C 277.259 236.390,276.994 236.743,276.663 236.743 C 276.336 236.743,276.068 237.011,276.068 237.339 C 276.068 237.670,275.714 237.934,275.273 237.934 C 274.743 237.934,274.479 238.199,274.479 238.729 C 274.479 239.259,274.214 239.523,273.684 239.523 C 273.243 239.523,272.890 239.788,272.890 240.119 C 272.890 240.447,272.622 240.715,272.294 240.715 C 271.963 240.715,271.698 241.068,271.698 241.509 C 271.698 241.972,271.433 242.304,271.065 242.304 C 270.717 242.304,270.339 242.661,270.224 243.098 C 270.110 243.535,269.769 243.893,269.467 243.893 C 269.165 243.893,268.918 244.161,268.918 244.489 C 268.918 244.816,268.670 245.084,268.368 245.084 C 268.066 245.084,267.725 245.442,267.611 245.879 C 267.497 246.316,267.118 246.673,266.770 246.673 C 266.422 246.673,266.137 246.941,266.137 247.269 C 266.137 247.597,265.852 247.865,265.504 247.865 C 265.156 247.865,264.778 248.222,264.663 248.659 C 264.549 249.096,264.208 249.454,263.906 249.454 C 263.604 249.454,263.357 249.722,263.357 250.050 C 263.357 250.377,263.092 250.645,262.768 250.645 C 262.106 250.645,261.635 252.077,261.834 253.485 C 261.995 254.625,264.004 255.067,264.394 254.048 C 264.546 253.653,265.124 253.426,265.981 253.426 C 267.064 253.426,267.329 253.270,267.329 252.632 C 267.329 251.988,267.594 251.837,268.719 251.837 C 269.690 251.837,270.109 251.657,270.109 251.241 C 270.109 250.825,270.529 250.645,271.500 250.645 C 272.625 250.645,272.890 250.494,272.890 249.851 C 272.890 249.162,273.155 249.057,274.888 249.057 C 276.298 249.057,276.954 248.881,277.116 248.461 C 277.248 248.115,277.842 247.865,278.531 247.865 C 279.383 247.865,279.775 247.641,279.925 247.071 C 280.097 246.412,280.466 246.276,282.085 246.276 C 283.454 246.276,284.105 246.098,284.265 245.680 C 284.391 245.353,284.967 245.082,285.544 245.079 C 287.205 245.070,288.381 244.642,288.381 244.045 C 288.381 243.682,288.853 243.496,289.772 243.496 C 290.743 243.496,291.162 243.316,291.162 242.900 C 291.162 242.471,291.600 242.304,292.718 242.304 C 294.659 242.304,295.531 241.983,295.531 241.268 C 295.531 240.869,296.085 240.715,297.517 240.715 C 299.239 240.715,299.503 240.609,299.503 239.921 C 299.503 239.222,299.768 239.126,301.688 239.126 C 303.365 239.126,303.873 238.988,303.873 238.530 C 303.873 238.061,304.429 237.934,306.492 237.934 C 308.777 237.934,309.138 237.833,309.319 237.140 C 309.501 236.443,309.861 236.346,312.261 236.346 C 314.426 236.346,314.995 236.222,314.995 235.750 C 314.995 235.266,315.639 235.154,318.409 235.154 C 321.488 235.154,321.842 235.076,322.030 234.359 C 322.223 233.621,322.572 233.565,326.970 233.565 C 330.811 233.565,331.746 233.453,331.932 232.969 C 332.214 232.233,364.250 232.049,364.250 232.783 C 364.250 233.009,364.652 233.355,365.144 233.553 L 366.038 233.912 365.144 233.937 C 364.652 233.951,364.250 234.211,364.250 234.516 C 364.250 234.820,363.982 235.172,363.654 235.298 C 363.306 235.431,363.059 236.026,363.059 236.730 C 363.059 237.670,362.884 237.934,362.264 237.934 C 361.735 237.934,361.470 238.199,361.470 238.729 C 361.470 239.170,361.205 239.523,360.874 239.523 C 360.546 239.523,360.278 239.791,360.278 240.119 C 360.278 240.450,359.925 240.715,359.484 240.715 C 358.954 240.715,358.689 240.980,358.689 241.509 C 358.689 241.946,358.491 242.304,358.249 242.304 C 357.638 242.304,355.924 243.982,355.916 244.588 C 355.912 244.861,355.710 245.084,355.468 245.084 C 354.858 245.084,353.143 246.763,353.135 247.368 C 353.131 247.642,352.930 247.865,352.688 247.865 C 352.077 247.865,350.363 249.543,350.354 250.149 C 350.351 250.422,349.990 250.645,349.553 250.645 C 349.112 250.645,348.759 250.910,348.759 251.241 C 348.759 251.569,348.491 251.837,348.163 251.837 C 347.832 251.837,347.567 252.190,347.567 252.632 C 347.567 253.161,347.302 253.426,346.773 253.426 C 346.243 253.426,345.978 253.691,345.978 254.220 C 345.978 254.840,345.713 255.015,344.774 255.015 C 344.070 255.015,343.475 255.262,343.341 255.611 C 343.216 255.938,342.864 256.207,342.559 256.207 C 342.255 256.207,342.006 256.564,342.006 257.001 C 342.006 257.531,341.741 257.795,341.212 257.795 C 340.770 257.795,340.417 258.060,340.417 258.391 C 340.417 258.719,340.149 258.987,339.821 258.987 C 339.490 258.987,339.225 259.340,339.225 259.782 C 339.225 260.426,338.961 260.576,337.823 260.576 C 336.942 260.576,336.335 260.798,336.191 261.172 C 336.066 261.500,335.714 261.768,335.409 261.768 C 335.105 261.768,334.856 262.125,334.856 262.562 C 334.856 263.177,334.591 263.357,333.684 263.357 C 333.040 263.357,332.369 263.593,332.195 263.883 C 332.020 264.173,331.564 264.524,331.182 264.665 C 330.799 264.805,330.487 265.194,330.487 265.529 C 330.487 265.941,330.099 266.137,329.282 266.137 C 328.579 266.137,327.983 266.385,327.850 266.733 C 327.724 267.061,327.372 267.329,327.068 267.329 C 326.763 267.329,326.514 267.686,326.514 268.123 C 326.514 268.766,326.250 268.918,325.124 268.918 C 324.203 268.918,323.734 269.104,323.734 269.469 C 323.734 269.785,323.140 270.132,322.344 270.282 C 321.511 270.438,320.953 270.774,320.953 271.120 C 320.953 271.438,320.596 271.698,320.159 271.698 C 319.718 271.698,319.364 271.963,319.364 272.294 C 319.364 272.695,318.963 272.890,318.136 272.890 C 317.241 272.890,316.850 273.106,316.699 273.684 C 316.543 274.281,316.157 274.479,315.147 274.479 C 314.068 274.479,313.803 274.635,313.803 275.273 C 313.803 275.916,313.539 276.068,312.413 276.068 C 311.442 276.068,311.023 276.247,311.023 276.663 C 311.023 277.079,310.604 277.259,309.633 277.259 C 308.507 277.259,308.242 277.411,308.242 278.054 C 308.242 278.697,307.977 278.848,306.852 278.848 C 305.881 278.848,305.462 279.028,305.462 279.444 C 305.462 279.896,304.972 280.040,303.438 280.040 C 301.749 280.040,301.381 280.171,301.207 280.834 C 301.051 281.431,300.666 281.629,299.656 281.629 C 298.726 281.629,298.312 281.812,298.312 282.224 C 298.312 282.676,297.822 282.820,296.289 282.820 C 294.599 282.820,294.231 282.951,294.057 283.615 C 293.886 284.272,293.516 284.409,291.910 284.409 C 290.451 284.409,289.970 284.557,289.970 285.005 C 289.970 285.457,289.481 285.601,287.947 285.601 C 286.258 285.601,285.889 285.732,285.716 286.395 C 285.535 287.086,285.174 287.190,282.960 287.190 C 281.062 287.190,280.354 287.342,280.183 287.786 C 280.023 288.203,279.372 288.381,278.011 288.381 C 276.332 288.381,276.068 288.490,276.068 289.176 C 276.068 289.895,275.803 289.970,273.275 289.970 C 271.158 289.970,270.426 290.115,270.253 290.566 C 270.076 291.027,269.305 291.162,266.852 291.162 C 264.013 291.162,263.657 291.246,263.472 291.956 C 263.284 292.676,262.930 292.751,259.735 292.751 C 256.471 292.751,256.207 292.810,256.207 293.545 C 256.207 294.234,255.942 294.340,254.220 294.340 C 252.278 294.340,252.234 294.366,252.234 295.531 L 252.234 296.723 255.564 296.723 C 258.560 296.723,258.915 296.803,259.102 297.517 C 259.283 298.210,259.644 298.312,261.929 298.312 C 263.992 298.312,264.548 298.438,264.548 298.908 C 264.548 299.380,265.117 299.503,267.282 299.503 C 269.683 299.503,270.042 299.601,270.224 300.298 C 270.383 300.906,270.766 301.092,271.860 301.092 C 272.864 301.092,273.287 301.269,273.287 301.688 C 273.287 302.138,273.772 302.284,275.273 302.284 C 276.994 302.284,277.259 302.390,277.259 303.078 C 277.259 303.777,277.524 303.873,279.444 303.873 C 281.364 303.873,281.629 303.969,281.629 304.667 C 281.629 305.310,281.893 305.462,283.019 305.462 C 283.990 305.462,284.409 305.641,284.409 306.058 C 284.409 306.470,284.823 306.653,285.753 306.653 C 286.763 306.653,287.149 306.851,287.305 307.448 C 287.456 308.026,287.847 308.242,288.741 308.242 C 289.569 308.242,289.970 308.437,289.970 308.838 C 289.970 309.250,290.384 309.434,291.314 309.434 C 292.324 309.434,292.710 309.631,292.866 310.228 C 293.017 310.807,293.408 311.023,294.302 311.023 C 295.130 311.023,295.531 311.217,295.531 311.619 C 295.531 312.035,295.951 312.214,296.922 312.214 C 298.047 312.214,298.312 312.366,298.312 313.009 C 298.312 313.539,298.577 313.803,299.106 313.803 C 299.548 313.803,299.901 314.068,299.901 314.399 C 299.901 314.815,300.320 314.995,301.291 314.995 C 302.416 314.995,302.681 315.146,302.681 315.789 C 302.681 316.433,302.946 316.584,304.071 316.584 C 305.042 316.584,305.462 316.764,305.462 317.180 C 305.462 317.507,305.687 317.776,305.962 317.776 C 306.237 317.776,306.686 318.133,306.958 318.570 C 307.239 319.019,307.885 319.364,308.444 319.364 C 309.059 319.364,309.434 319.590,309.434 319.960 C 309.434 320.291,309.787 320.556,310.228 320.556 C 310.758 320.556,311.023 320.821,311.023 321.351 C 311.023 321.994,311.288 322.145,312.413 322.145 C 313.384 322.145,313.803 322.325,313.803 322.741 C 313.803 323.069,314.071 323.337,314.399 323.337 C 314.727 323.337,314.995 323.610,314.995 323.945 C 314.995 324.280,315.294 324.668,315.660 324.808 C 316.025 324.949,316.651 325.390,317.050 325.789 C 317.449 326.188,318.133 326.514,318.570 326.514 C 319.011 326.514,319.364 326.779,319.364 327.110 C 319.364 327.441,319.718 327.706,320.159 327.706 C 320.689 327.706,320.953 327.971,320.953 328.500 C 320.953 328.942,321.218 329.295,321.549 329.295 C 321.877 329.295,322.145 329.563,322.145 329.891 C 322.145 330.414,318.989 330.487,296.127 330.487 C 273.265 330.487,270.109 330.414,270.109 329.891 C 270.109 329.408,269.469 329.295,266.733 329.295 C 264.112 329.295,263.357 329.171,263.357 328.742 C 263.357 327.963,262.460 327.706,259.749 327.706 C 257.924 327.706,257.398 327.573,257.398 327.110 C 257.398 326.662,256.918 326.514,255.458 326.514 C 253.853 326.514,253.483 326.378,253.311 325.720 C 253.137 325.057,252.769 324.926,251.080 324.926 C 249.546 324.926,249.057 324.781,249.057 324.330 C 249.057 323.881,248.574 323.734,247.097 323.734 C 245.487 323.734,245.093 323.592,244.886 322.939 C 244.679 322.286,244.285 322.145,242.674 322.145 C 241.198 322.145,240.715 321.998,240.715 321.549 C 240.715 321.141,240.306 320.953,239.420 320.953 C 238.556 320.953,237.961 320.689,237.629 320.159 C 237.253 319.556,236.703 319.364,235.349 319.364 C 234.028 319.364,233.565 319.210,233.565 318.769 C 233.565 318.352,233.146 318.173,232.175 318.173 C 231.049 318.173,230.785 318.021,230.785 317.378 C 230.785 316.735,230.520 316.584,229.394 316.584 C 228.423 316.584,228.004 316.404,228.004 315.988 C 228.004 315.538,227.518 315.392,226.018 315.392 C 224.297 315.392,224.032 315.286,224.032 314.598 C 224.032 313.960,223.767 313.803,222.688 313.803 C 221.678 313.803,221.292 313.606,221.136 313.009 C 220.977 312.400,220.594 312.214,219.501 312.214 C 218.497 312.214,218.073 312.038,218.073 311.619 C 218.073 311.291,217.895 311.023,217.676 311.023 C 217.458 311.023,216.922 310.665,216.485 310.228 C 216.048 309.791,215.352 309.434,214.938 309.434 C 214.525 309.434,214.083 309.166,213.958 308.838 C 213.827 308.497,213.234 308.242,212.571 308.242 C 211.747 308.242,211.353 308.013,211.206 307.448 C 211.054 306.869,210.664 306.653,209.769 306.653 C 208.942 306.653,208.540 306.459,208.540 306.058 C 208.540 305.727,208.187 305.462,207.746 305.462 C 207.216 305.462,206.951 305.197,206.951 304.667 C 206.951 304.024,206.687 303.873,205.561 303.873 C 204.590 303.873,204.171 303.693,204.171 303.277 C 204.171 302.949,203.924 302.681,203.621 302.681 C 203.319 302.681,202.978 302.324,202.864 301.887 C 202.750 301.450,202.371 301.092,202.023 301.092 C 201.675 301.092,201.390 300.824,201.390 300.497 C 201.390 300.046,200.905 299.901,199.404 299.901 C 197.904 299.901,197.418 300.046,197.418 300.497 C 197.418 300.828,197.065 301.092,196.624 301.092 C 196.094 301.092,195.829 301.357,195.829 301.887 C 195.829 302.328,195.564 302.681,195.233 302.681 C 194.906 302.681,194.638 302.949,194.638 303.277 C 194.638 303.693,194.218 303.873,193.247 303.873 C 192.122 303.873,191.857 304.024,191.857 304.667 C 191.857 305.197,191.592 305.462,191.063 305.462 C 190.621 305.462,190.268 305.727,190.268 306.058 C 190.268 306.459,189.867 306.653,189.039 306.653 C 188.144 306.653,187.754 306.869,187.603 307.448 C 187.447 308.045,187.061 308.242,186.051 308.242 C 185.169 308.242,184.707 308.432,184.707 308.794 C 184.707 309.110,184.113 309.457,183.317 309.606 C 182.485 309.762,181.927 310.099,181.927 310.445 C 181.927 310.763,181.569 311.023,181.132 311.023 C 180.691 311.023,180.338 311.288,180.338 311.619 C 180.338 312.020,179.936 312.214,179.109 312.214 C 178.214 312.214,177.823 312.430,177.672 313.009 C 177.516 313.606,177.130 313.803,176.121 313.803 C 175.041 313.803,174.777 313.960,174.777 314.598 C 174.777 315.286,174.512 315.392,172.790 315.392 C 171.290 315.392,170.804 315.538,170.804 315.988 C 170.804 316.402,170.388 316.584,169.441 316.584 C 168.426 316.584,168.013 316.787,167.825 317.378 C 167.638 317.970,167.224 318.173,166.210 318.173 C 165.262 318.173,164.846 318.355,164.846 318.769 C 164.846 319.212,164.379 319.364,163.021 319.364 C 161.531 319.364,161.159 319.510,160.989 320.159 C 160.833 320.756,160.447 320.953,159.437 320.953 C 158.507 320.953,158.093 321.137,158.093 321.549 C 158.093 322.001,157.604 322.145,156.070 322.145 C 154.381 322.145,154.012 322.276,153.839 322.939 C 153.667 323.597,153.297 323.734,151.692 323.734 C 150.232 323.734,149.752 323.881,149.752 324.330 C 149.752 324.781,149.262 324.926,147.728 324.926 C 146.039 324.926,145.671 325.057,145.497 325.720 C 145.325 326.378,144.956 326.514,143.337 326.514 C 141.969 326.514,141.317 326.692,141.157 327.110 C 140.986 327.555,140.275 327.706,138.351 327.706 C 136.109 327.706,135.748 327.809,135.567 328.500 C 135.380 329.215,135.025 329.295,132.029 329.295 C 129.334 329.295,128.699 329.409,128.699 329.891 C 128.699 330.414,125.523 330.487,102.495 330.487 C 79.366 330.487,76.318 330.417,76.520 329.891 C 76.645 329.563,76.997 329.295,77.302 329.295 C 77.606 329.295,77.855 328.937,77.855 328.500 C 77.855 327.971,78.120 327.706,78.649 327.706 C 79.086 327.706,79.444 327.452,79.444 327.142 C 79.444 326.831,79.980 326.460,80.636 326.316 C 81.291 326.172,81.827 325.800,81.827 325.490 C 81.827 325.179,82.185 324.926,82.622 324.926 C 83.151 324.926,83.416 324.661,83.416 324.131 C 83.416 323.601,83.681 323.337,84.211 323.337 C 84.652 323.337,85.005 323.072,85.005 322.741 C 85.005 322.340,85.406 322.145,86.234 322.145 C 87.129 322.145,87.519 321.929,87.670 321.351 C 87.785 320.914,88.125 320.556,88.428 320.556 C 88.730 320.556,88.977 320.288,88.977 319.960 C 88.977 319.559,89.379 319.364,90.206 319.364 C 91.101 319.364,91.491 319.148,91.643 318.570 C 91.758 318.130,92.184 317.776,92.598 317.776 C 93.010 317.776,93.347 317.507,93.347 317.180 C 93.347 316.779,93.748 316.584,94.575 316.584 C 95.470 316.584,95.861 316.368,96.012 315.789 C 96.158 315.231,96.554 314.995,97.345 314.995 C 97.964 314.995,98.614 314.758,98.789 314.469 C 98.963 314.179,99.419 313.827,99.801 313.687 C 100.184 313.546,100.497 313.157,100.497 312.823 C 100.497 312.392,100.903 312.214,101.887 312.214 C 102.858 312.214,103.277 312.035,103.277 311.619 C 103.277 311.291,103.620 311.023,104.039 311.023 C 105.223 311.023,106.058 310.595,106.058 309.987 C 106.058 309.636,106.497 309.434,107.262 309.434 C 107.966 309.434,108.561 309.186,108.694 308.838 C 108.820 308.510,109.247 308.242,109.643 308.242 C 110.787 308.242,111.619 307.806,111.619 307.207 C 111.619 306.839,112.085 306.653,113.009 306.653 C 113.980 306.653,114.399 306.474,114.399 306.058 C 114.399 305.656,114.801 305.462,115.628 305.462 C 116.523 305.462,116.913 305.246,117.065 304.667 C 117.236 304.013,117.606 303.873,119.166 303.873 C 120.725 303.873,121.096 303.733,121.267 303.078 C 121.426 302.470,121.809 302.284,122.902 302.284 C 123.906 302.284,124.330 302.107,124.330 301.688 C 124.330 301.238,124.815 301.092,126.316 301.092 C 128.037 301.092,128.302 300.986,128.302 300.298 C 128.302 299.579,128.567 299.503,131.082 299.503 C 133.289 299.503,133.863 299.381,133.863 298.908 C 133.863 298.434,134.441 298.312,136.681 298.312 C 139.164 298.312,139.523 298.218,139.706 297.517 C 139.893 296.803,140.248 296.723,143.244 296.723 L 146.574 296.723 146.574 295.531 C 146.574 294.370,146.525 294.340,144.634 294.340 C 143.029 294.340,142.659 294.203,142.487 293.545 C 142.299 292.828,141.945 292.751,138.865 292.751 C 136.212 292.751,135.452 292.627,135.452 292.197 C 135.452 291.386,134.542 291.162,131.249 291.162 C 128.894 291.162,128.302 291.042,128.302 290.566 C 128.302 290.094,127.733 289.970,125.568 289.970 C 123.168 289.970,122.808 289.873,122.626 289.176 C 122.452 288.512,122.084 288.381,120.395 288.381 C 118.861 288.381,118.371 288.237,118.371 287.786 C 118.371 287.314,117.803 287.190,115.637 287.190 C 113.237 287.190,112.878 287.093,112.695 286.395 C 112.526 285.746,112.153 285.601,110.663 285.601 C 109.306 285.601,108.838 285.448,108.838 285.005 C 108.838 284.548,108.331 284.409,106.653 284.409 C 104.734 284.409,104.469 284.313,104.469 283.615 C 104.469 282.926,104.204 282.820,102.483 282.820 C 100.982 282.820,100.497 282.675,100.497 282.224 C 100.497 281.811,100.080 281.629,99.133 281.629 C 98.118 281.629,97.705 281.425,97.517 280.834 C 97.310 280.181,96.916 280.040,95.306 280.040 C 93.829 280.040,93.347 279.893,93.347 279.444 C 93.347 279.028,92.927 278.848,91.956 278.848 C 90.831 278.848,90.566 278.697,90.566 278.054 C 90.566 277.411,90.301 277.259,89.176 277.259 C 88.205 277.259,87.786 277.079,87.786 276.663 C 87.786 276.247,87.366 276.068,86.395 276.068 C 85.270 276.068,85.005 275.916,85.005 275.273 C 85.005 274.635,84.740 274.479,83.661 274.479 C 82.651 274.479,82.265 274.281,82.109 273.684 C 81.960 273.113,81.568 272.890,80.715 272.890 C 80.027 272.890,79.433 272.640,79.300 272.294 C 79.169 271.953,78.577 271.698,77.914 271.698 C 77.090 271.698,76.696 271.469,76.548 270.904 C 76.434 270.467,76.056 270.109,75.707 270.109 C 75.359 270.109,75.074 269.841,75.074 269.513 C 75.074 269.101,74.660 268.918,73.731 268.918 C 72.721 268.918,72.335 268.720,72.179 268.123 C 72.065 267.686,71.686 267.329,71.338 267.329 C 70.990 267.329,70.705 267.061,70.705 266.733 C 70.705 266.321,70.291 266.137,69.361 266.137 C 68.351 266.137,67.966 265.940,67.809 265.343 C 67.658 264.764,67.268 264.548,66.373 264.548 C 65.545 264.548,65.144 264.354,65.144 263.952 C 65.144 263.625,64.876 263.357,64.548 263.357 C 64.217 263.357,63.952 263.003,63.952 262.562 C 63.952 262.032,63.688 261.768,63.158 261.768 C 62.717 261.768,62.363 261.503,62.363 261.172 C 62.363 260.756,61.944 260.576,60.973 260.576 C 59.848 260.576,59.583 260.425,59.583 259.782 C 59.583 259.345,59.334 258.987,59.030 258.987 C 58.725 258.987,58.373 258.719,58.248 258.391 C 58.122 258.064,57.766 257.795,57.457 257.795 C 57.148 257.795,56.802 257.438,56.687 257.001 C 56.573 256.564,56.195 256.207,55.847 256.207 C 55.498 256.207,55.214 255.938,55.214 255.611 C 55.214 255.214,54.816 255.015,54.022 255.015 C 53.095 255.015,52.830 254.838,52.830 254.220 C 52.830 253.691,52.565 253.426,52.036 253.426 C 51.506 253.426,51.241 253.161,51.241 252.632 C 51.241 252.102,50.976 251.837,50.447 251.837 C 50.006 251.837,49.652 251.572,49.652 251.241 C 49.652 250.914,49.405 250.645,49.103 250.645 C 48.801 250.645,48.460 250.288,48.346 249.851 C 48.231 249.414,47.853 249.057,47.505 249.057 C 47.157 249.057,46.872 248.788,46.872 248.461 C 46.872 248.133,46.625 247.865,46.322 247.865 C 46.020 247.865,45.679 247.507,45.565 247.071 C 45.451 246.634,45.073 246.276,44.724 246.276 C 44.376 246.276,44.091 246.008,44.091 245.680 C 44.091 245.353,43.844 245.084,43.542 245.084 C 43.240 245.084,42.899 244.727,42.785 244.290 C 42.670 243.853,42.292 243.496,41.944 243.496 C 41.596 243.496,41.311 243.227,41.311 242.900 C 41.311 242.572,41.064 242.304,40.761 242.304 C 40.459 242.304,40.118 241.946,40.004 241.509 C 39.890 241.072,39.511 240.715,39.163 240.715 C 38.815 240.715,38.530 240.447,38.530 240.119 C 38.530 239.791,38.283 239.523,37.981 239.523 C 37.679 239.523,37.338 239.166,37.224 238.729 C 37.109 238.292,36.731 237.934,36.383 237.934 C 36.035 237.934,35.750 237.666,35.750 237.339 C 35.750 237.011,35.502 236.743,35.198 236.743 C 34.882 236.743,34.535 236.149,34.386 235.353 C 34.230 234.520,33.893 233.962,33.547 233.962 C 33.229 233.962,32.969 233.605,32.969 233.168 C 32.969 232.386,33.234 232.373,49.851 232.373 C 64.592 232.373,66.733 232.449,66.733 232.969 C 66.733 233.467,67.549 233.565,71.698 233.565 C 76.399 233.565,76.663 233.607,76.663 234.359 C 76.663 235.092,76.928 235.154,80.040 235.154 C 82.776 235.154,83.416 235.267,83.416 235.750 C 83.416 236.226,84.012 236.346,86.395 236.346 C 89.110 236.346,89.374 236.416,89.374 237.140 C 89.374 237.859,89.639 237.934,92.155 237.934 C 94.362 237.934,94.935 238.057,94.935 238.530 C 94.935 238.979,95.416 239.126,96.875 239.126 C 98.481 239.126,98.851 239.263,99.023 239.921 C 99.195 240.581,99.565 240.715,101.207 240.715 C 102.850 240.715,103.220 240.849,103.392 241.509 C 103.566 242.173,103.934 242.304,105.623 242.304 C 107.157 242.304,107.646 242.448,107.646 242.900 C 107.646 243.316,108.066 243.496,109.037 243.496 C 109.956 243.496,110.427 243.682,110.427 244.045 C 110.427 244.647,111.606 245.071,113.307 245.079 C 114.011 245.082,114.399 245.296,114.399 245.680 C 114.399 246.138,114.907 246.276,116.584 246.276 C 118.504 246.276,118.769 246.372,118.769 247.071 C 118.769 247.714,119.033 247.865,120.159 247.865 C 121.130 247.865,121.549 248.045,121.549 248.461 C 121.549 248.909,122.029 249.057,123.489 249.057 C 125.095 249.057,125.464 249.193,125.636 249.851 C 125.796 250.460,126.178 250.645,127.272 250.645 C 128.276 250.645,128.699 250.822,128.699 251.241 C 128.699 251.657,129.118 251.837,130.089 251.837 C 131.215 251.837,131.480 251.988,131.480 252.632 C 131.480 253.275,131.744 253.426,132.870 253.426 C 133.841 253.426,134.260 253.606,134.260 254.022 C 134.260 254.414,134.652 254.618,135.406 254.618 C 136.514 254.618,137.018 253.913,137.035 252.336 C 137.046 251.360,133.199 247.865,132.115 247.865 C 131.200 247.865,131.082 247.707,131.082 246.475 C 131.082 245.710,130.913 245.084,130.706 245.084 C 130.159 245.084,128.302 243.285,128.302 242.755 C 128.302 242.507,128.055 242.304,127.752 242.304 C 127.450 242.304,127.109 241.946,126.995 241.509 C 126.881 241.072,126.503 240.715,126.154 240.715 C 125.806 240.715,125.521 240.447,125.521 240.119 C 125.521 239.791,125.274 239.523,124.972 239.523 C 124.670 239.523,124.329 239.166,124.215 238.729 C 124.100 238.292,123.722 237.934,123.374 237.934 C 123.026 237.934,122.741 237.666,122.741 237.339 C 122.741 237.011,122.494 236.743,122.191 236.743 C 121.889 236.743,121.548 236.385,121.434 235.948 C 121.320 235.511,120.941 235.154,120.593 235.154 C 120.245 235.154,119.960 234.886,119.960 234.558 C 119.960 234.230,119.692 233.962,119.364 233.962 C 119.033 233.962,118.769 233.609,118.769 233.168 C 118.769 232.638,118.504 232.373,117.974 232.373 C 117.351 232.373,117.180 232.109,117.180 231.145 C 117.180 230.250,116.964 229.859,116.385 229.708 C 115.948 229.594,115.591 229.253,115.591 228.951 C 115.591 228.648,115.323 228.401,114.995 228.401 C 114.664 228.401,114.399 228.048,114.399 227.607 C 114.399 227.077,114.134 226.812,113.605 226.812 C 113.075 226.812,112.810 226.548,112.810 226.018 C 112.810 225.577,112.546 225.223,112.214 225.223 C 111.887 225.223,111.619 224.955,111.619 224.628 C 111.619 224.297,111.266 224.032,110.824 224.032 C 110.181 224.032,110.030 223.767,110.030 222.642 C 110.030 221.671,109.850 221.251,109.434 221.251 C 109.106 221.251,108.838 220.966,108.838 220.618 C 108.838 220.270,108.481 219.892,108.044 219.777 C 107.607 219.663,107.249 219.322,107.249 219.020 C 107.249 218.718,106.981 218.471,106.653 218.471 C 106.252 218.471,106.058 218.069,106.058 217.242 C 106.058 216.347,105.842 215.957,105.263 215.805 C 104.823 215.690,104.469 215.263,104.469 214.849 C 104.469 214.438,104.201 214.101,103.873 214.101 C 103.545 214.101,103.277 213.833,103.277 213.505 C 103.277 213.174,102.924 212.910,102.483 212.910 C 101.840 212.910,101.688 212.645,101.688 211.519 C 101.688 210.548,101.508 210.129,101.092 210.129 C 100.765 210.129,100.497 209.844,100.497 209.496 C 100.497 209.148,100.139 208.770,99.702 208.655 C 99.137 208.508,98.908 208.113,98.908 207.290 C 98.908 206.627,98.653 206.034,98.312 205.903 C 97.984 205.778,97.716 205.409,97.716 205.084 C 97.716 204.759,97.358 204.400,96.922 204.286 C 96.359 204.139,96.127 203.744,96.127 202.933 C 96.127 202.180,95.923 201.787,95.531 201.787 C 95.200 201.787,94.935 201.434,94.935 200.993 C 94.935 200.463,94.671 200.199,94.141 200.199 C 93.518 200.199,93.347 199.934,93.347 198.970 C 93.347 198.075,93.131 197.684,92.552 197.533 C 92.112 197.418,91.758 196.991,91.758 196.577 C 91.758 196.166,91.490 195.829,91.162 195.829 C 90.761 195.829,90.566 195.428,90.566 194.600 C 90.566 193.706,90.350 193.315,89.772 193.164 C 89.206 193.016,88.977 192.622,88.977 191.798 C 88.977 191.135,88.722 190.543,88.381 190.412 C 88.054 190.286,87.786 189.917,87.786 189.593 C 87.786 189.268,87.428 188.909,86.991 188.794 C 86.394 188.638,86.197 188.253,86.197 187.243 C 86.197 186.313,86.013 185.899,85.601 185.899 C 85.207 185.899,85.005 185.504,85.005 184.734 C 85.005 183.918,84.767 183.493,84.211 183.317 C 83.651 183.139,83.416 182.716,83.416 181.887 C 83.416 181.229,83.164 180.613,82.845 180.491 C 82.530 180.370,82.156 179.738,82.013 179.086 C 81.869 178.434,81.501 177.804,81.194 177.686 C 80.887 177.569,80.636 176.949,80.636 176.310 C 80.636 175.644,80.381 175.051,80.040 174.920 C 79.712 174.794,79.444 174.353,79.444 173.940 C 79.444 173.526,79.086 172.830,78.649 172.393 C 78.213 171.956,77.855 171.146,77.855 170.593 C 77.855 170.040,77.587 169.485,77.259 169.359 C 76.931 169.233,76.663 168.792,76.663 168.379 C 76.663 167.965,76.306 167.269,75.869 166.832 C 75.428 166.391,75.074 165.508,75.074 164.846 C 75.074 164.052,74.876 163.654,74.479 163.654 C 74.077 163.654,73.883 163.253,73.883 162.426 C 73.883 161.531,73.667 161.140,73.088 160.989 C 72.491 160.833,72.294 160.447,72.294 159.437 C 72.294 158.358,72.137 158.093,71.500 158.093 C 70.810 158.093,70.705 157.829,70.705 156.095 C 70.705 154.685,70.530 154.029,70.109 153.868 C 69.764 153.735,69.513 153.141,69.513 152.453 C 69.513 151.600,69.290 151.208,68.719 151.058 C 68.122 150.902,67.925 150.517,67.925 149.507 C 67.925 148.577,67.741 148.163,67.329 148.163 C 66.880 148.163,66.733 147.680,66.733 146.204 C 66.733 144.593,66.591 144.199,65.938 143.992 C 65.285 143.785,65.144 143.391,65.144 141.781 C 65.144 140.304,64.997 139.821,64.548 139.821 C 64.132 139.821,63.952 139.402,63.952 138.431 C 63.952 137.306,63.801 137.041,63.158 137.041 C 62.460 137.041,62.363 136.776,62.363 134.856 C 62.363 133.179,62.225 132.671,61.768 132.671 C 61.324 132.671,61.172 132.204,61.172 130.847 C 61.172 129.356,61.026 128.984,60.377 128.814 C 59.707 128.639,59.583 128.272,59.583 126.468 C 59.583 124.832,59.443 124.330,58.987 124.330 C 58.535 124.330,58.391 123.840,58.391 122.306 C 58.391 120.617,58.260 120.249,57.597 120.075 C 56.907 119.895,56.802 119.534,56.802 117.320 C 56.802 115.421,56.650 114.713,56.207 114.543 C 55.799 114.387,55.611 113.750,55.611 112.532 C 55.611 111.084,55.462 110.711,54.816 110.542 C 54.118 110.360,54.022 110.000,54.022 107.588 C 54.022 105.513,53.876 104.785,53.426 104.612 C 53.002 104.450,52.830 103.788,52.830 102.321 L 52.830 100.259 54.220 100.421 C 55.065 100.520,55.611 100.800,55.611 101.136 C 55.611 101.502,56.079 101.688,57.001 101.688 C 58.126 101.688,58.391 101.840,58.391 102.483 C 58.391 103.012,58.656 103.277,59.186 103.277 C 59.627 103.277,59.980 103.542,59.980 103.873 C 59.980 104.265,60.372 104.469,61.125 104.469 C 61.937 104.469,62.331 104.700,62.479 105.263 C 62.638 105.872,63.020 106.058,64.114 106.058 C 65.118 106.058,65.541 106.234,65.541 106.653 C 65.541 106.981,65.788 107.249,66.091 107.249 C 66.393 107.249,66.734 107.607,66.848 108.044 C 66.999 108.622,67.390 108.838,68.285 108.838 C 69.112 108.838,69.513 109.033,69.513 109.434 C 69.513 109.762,69.850 110.030,70.262 110.030 C 70.676 110.030,71.102 110.385,71.217 110.824 C 71.369 111.403,71.759 111.619,72.654 111.619 C 73.481 111.619,73.883 111.813,73.883 112.214 C 73.883 112.542,74.139 112.810,74.452 112.810 C 74.765 112.810,75.134 113.168,75.273 113.605 C 75.450 114.161,75.874 114.399,76.690 114.399 C 77.491 114.399,77.855 114.597,77.855 115.032 C 77.855 115.380,78.213 115.759,78.649 115.873 C 79.086 115.987,79.444 116.328,79.444 116.630 C 79.444 116.993,79.915 117.180,80.834 117.180 C 81.960 117.180,82.224 117.331,82.224 117.974 C 82.224 118.411,82.473 118.769,82.778 118.769 C 83.082 118.769,83.434 119.037,83.560 119.364 C 83.685 119.692,84.062 119.960,84.397 119.960 C 84.731 119.960,85.005 120.220,85.005 120.538 C 85.005 120.884,85.563 121.221,86.395 121.377 C 87.191 121.526,87.786 121.873,87.786 122.189 C 87.786 122.493,88.143 122.741,88.580 122.741 C 89.110 122.741,89.374 123.006,89.374 123.535 C 89.374 123.977,89.639 124.330,89.970 124.330 C 90.298 124.330,90.566 124.598,90.566 124.926 C 90.566 125.342,90.985 125.521,91.956 125.521 C 93.082 125.521,93.347 125.673,93.347 126.316 C 93.347 126.845,93.611 127.110,94.141 127.110 C 94.582 127.110,94.935 127.375,94.935 127.706 C 94.935 128.034,95.204 128.302,95.531 128.302 C 95.859 128.302,96.127 128.587,96.127 128.935 C 96.127 129.283,96.485 129.661,96.922 129.776 C 97.358 129.890,97.716 130.231,97.716 130.533 C 97.716 130.835,97.978 131.082,98.298 131.082 C 98.618 131.082,99.071 131.440,99.305 131.877 C 99.553 132.341,100.137 132.671,100.709 132.671 C 101.315 132.671,101.688 132.899,101.688 133.267 C 101.688 133.598,102.041 133.863,102.483 133.863 C 103.012 133.863,103.277 134.128,103.277 134.657 C 103.277 135.094,103.448 135.452,103.656 135.452 C 104.149 135.452,106.058 137.360,106.058 137.853 C 106.058 138.062,106.415 138.232,106.852 138.232 C 107.293 138.232,107.646 138.497,107.646 138.828 C 107.646 139.156,107.894 139.424,108.196 139.424 C 108.498 139.424,108.839 139.782,108.953 140.218 C 109.105 140.797,109.495 141.013,110.390 141.013 C 111.354 141.013,111.619 141.184,111.619 141.807 C 111.619 142.337,111.883 142.602,112.413 142.602 C 112.854 142.602,113.208 142.867,113.208 143.198 C 113.208 143.525,113.476 143.793,113.803 143.793 C 114.134 143.793,114.399 144.147,114.399 144.588 C 114.399 145.118,114.664 145.382,115.194 145.382 C 115.635 145.382,115.988 145.647,115.988 145.978 C 115.988 146.306,116.256 146.574,116.584 146.574 C 116.915 146.574,117.180 146.927,117.180 147.368 C 117.180 147.898,117.445 148.163,117.974 148.163 C 118.416 148.163,118.769 148.428,118.769 148.759 C 118.769 149.086,119.016 149.355,119.318 149.355 C 119.620 149.355,119.961 149.712,120.075 150.149 C 120.190 150.586,120.568 150.943,120.916 150.943 C 121.264 150.943,121.549 151.212,121.549 151.539 C 121.549 151.867,121.796 152.135,122.099 152.135 C 122.401 152.135,122.742 152.493,122.856 152.929 C 122.970 153.366,123.349 153.724,123.697 153.724 C 124.045 153.724,124.330 153.992,124.330 154.320 C 124.330 154.647,124.598 154.916,124.926 154.916 C 125.257 154.916,125.521 155.269,125.521 155.710 C 125.521 156.240,125.786 156.504,126.316 156.504 C 126.845 156.504,127.110 156.769,127.110 157.299 C 127.110 157.829,127.375 158.093,127.905 158.093 C 128.346 158.093,128.699 158.358,128.699 158.689 C 128.699 159.017,128.967 159.285,129.295 159.285 C 129.626 159.285,129.891 159.638,129.891 160.079 C 129.891 160.609,130.156 160.874,130.685 160.874 C 131.303 160.874,131.480 161.139,131.480 162.066 C 131.480 162.815,131.683 163.257,132.029 163.257 C 132.331 163.257,132.672 163.615,132.786 164.052 C 132.901 164.489,133.279 164.846,133.627 164.846 C 133.995 164.846,134.260 165.178,134.260 165.641 C 134.260 166.082,134.525 166.435,134.856 166.435 C 135.184 166.435,135.452 166.703,135.452 167.031 C 135.452 167.362,135.805 167.627,136.246 167.627 C 136.776 167.627,137.041 167.891,137.041 168.421 C 137.041 168.862,137.306 169.215,137.637 169.215 C 137.964 169.215,138.232 169.484,138.232 169.811 C 138.232 170.142,138.585 170.407,139.027 170.407 C 139.670 170.407,139.821 170.672,139.821 171.797 C 139.821 172.716,140.008 173.188,140.371 173.188 C 140.673 173.188,141.014 173.545,141.128 173.982 C 141.242 174.419,141.621 174.777,141.969 174.777 C 142.317 174.777,142.602 175.045,142.602 175.372 C 142.602 175.700,142.850 175.968,143.153 175.968 C 143.469 175.968,143.816 176.562,143.966 177.358 C 144.122 178.191,144.459 178.749,144.804 178.749 C 145.122 178.749,145.382 179.106,145.382 179.543 C 145.382 179.985,145.647 180.338,145.978 180.338 C 146.306 180.338,146.574 180.622,146.574 180.971 C 146.574 181.319,146.931 181.697,147.368 181.811 C 147.921 181.956,148.163 182.353,148.163 183.118 C 148.163 183.883,148.404 184.280,148.957 184.425 C 149.394 184.539,149.752 184.918,149.752 185.266 C 149.752 185.614,150.020 185.899,150.348 185.899 C 150.679 185.899,150.943 186.252,150.943 186.693 C 150.943 187.223,151.208 187.488,151.738 187.488 C 152.381 187.488,152.532 187.752,152.532 188.878 C 152.532 189.849,152.712 190.268,153.128 190.268 C 153.456 190.268,153.724 190.536,153.724 190.864 C 153.724 191.195,154.077 191.460,154.518 191.460 C 155.161 191.460,155.313 191.725,155.313 192.850 C 155.313 193.821,155.493 194.240,155.909 194.240 C 156.236 194.240,156.504 194.525,156.504 194.873 C 156.504 195.221,156.862 195.600,157.299 195.714 C 157.736 195.828,158.093 196.169,158.093 196.471 C 158.093 196.774,158.361 197.021,158.689 197.021 C 159.108 197.021,159.285 197.444,159.285 198.448 C 159.285 199.542,159.471 199.924,160.079 200.084 C 160.516 200.198,160.874 200.539,160.874 200.841 C 160.874 201.143,161.142 201.390,161.470 201.390 C 161.871 201.390,162.066 201.792,162.066 202.619 C 162.066 203.514,162.282 203.904,162.860 204.056 C 163.419 204.202,163.654 204.598,163.654 205.389 C 163.654 206.008,163.891 206.658,164.181 206.832 C 164.470 207.007,164.822 207.463,164.963 207.845 C 165.103 208.227,165.492 208.540,165.827 208.540 C 166.239 208.540,166.435 208.928,166.435 209.744 C 166.435 210.448,166.682 211.043,167.031 211.177 C 167.358 211.303,167.627 211.744,167.627 212.158 C 167.627 212.571,167.984 213.267,168.421 213.704 C 168.858 214.141,169.215 214.677,169.215 214.896 C 169.215 215.114,169.573 215.293,170.010 215.293 C 170.653 215.293,170.804 215.558,170.804 216.683 C 170.804 217.654,170.984 218.073,171.400 218.073 C 171.831 218.073,171.996 218.515,171.996 219.662 C 171.996 220.986,172.128 221.251,172.790 221.251 C 173.434 221.251,173.585 221.516,173.585 222.642 C 173.585 223.612,173.765 224.032,174.181 224.032 C 174.582 224.032,174.777 224.433,174.777 225.261 C 174.777 226.155,174.993 226.546,175.571 226.697 C 176.168 226.853,176.365 227.239,176.365 228.249 C 176.365 229.156,176.552 229.593,176.940 229.593 C 177.343 229.593,177.550 230.155,177.635 231.480 L 177.756 233.366 179.742 233.366 C 182.009 233.366,182.787 232.123,181.157 231.105 C 180.420 230.645,180.338 230.203,180.338 226.717 C 180.338 223.536,180.231 222.840,179.742 222.840 C 179.256 222.840,179.146 222.178,179.146 219.265 C 179.146 215.955,179.087 215.690,178.352 215.690 C 177.601 215.690,177.557 215.425,177.557 210.886 C 177.557 206.417,177.502 206.068,176.763 205.875 C 176.022 205.681,175.968 205.333,175.968 200.748 C 175.968 196.641,175.870 195.829,175.372 195.829 C 174.864 195.829,174.777 194.749,174.777 188.495 C 174.777 181.567,174.733 181.136,173.982 180.735 C 173.200 180.316,173.188 179.903,173.188 154.306 C 173.188 128.567,173.196 128.302,173.982 128.302 C 174.742 128.302,174.777 128.037,174.777 122.187 C 174.777 117.119,174.878 116.034,175.372 115.844 C 175.856 115.659,175.968 114.718,175.968 110.837 C 175.968 106.322,176.012 106.058,176.763 106.058 C 177.506 106.058,177.557 105.793,177.557 101.933 C 177.557 98.143,177.621 97.792,178.352 97.601 C 179.068 97.413,179.146 97.059,179.146 93.980 C 179.146 91.210,179.258 90.566,179.742 90.566 C 180.212 90.566,180.338 90.008,180.338 87.929 C 180.338 85.882,180.492 85.178,181.028 84.786 C 181.561 84.397,181.752 83.546,181.865 81.068 C 181.974 78.655,182.149 77.855,182.564 77.855 C 182.971 77.855,183.118 77.274,183.118 75.670 C 183.118 74.075,183.266 73.486,183.668 73.486 C 184.351 73.486,184.695 72.264,184.702 69.811 C 184.706 68.401,184.858 67.925,185.303 67.925 C 185.747 67.925,185.899 67.455,185.899 66.082 C 185.899 64.816,186.107 64.086,186.565 63.752 C 187.020 63.418,187.286 62.496,187.407 60.828 C 187.531 59.106,187.744 58.391,188.131 58.391 C 188.531 58.391,188.679 57.799,188.679 56.207 C 188.679 54.287,188.776 54.022,189.474 54.022 C 190.112 54.022,190.268 53.757,190.268 52.674 C 190.268 51.842,190.496 51.239,190.864 51.098 C 191.284 50.936,191.460 50.281,191.460 48.870 C 191.460 47.137,191.565 46.872,192.254 46.872 C 192.943 46.872,193.049 46.607,193.049 44.886 C 193.049 43.385,193.194 42.900,193.644 42.900 C 194.058 42.900,194.240 42.483,194.240 41.536 C 194.240 40.522,194.444 40.108,195.035 39.921 C 195.688 39.713,195.829 39.320,195.829 37.709 C 195.829 36.232,195.976 35.750,196.425 35.750 C 196.841 35.750,197.021 35.330,197.021 34.359 C 197.021 33.234,197.172 32.969,197.815 32.969 C 198.458 32.969,198.610 32.704,198.610 31.579 C 198.610 30.453,198.761 30.189,199.404 30.189 C 200.047 30.189,200.199 30.453,200.199 31.579 " stroke="none" fill="#5ce4e4" fill-rule="evenodd"></path><path id="path1" d="" stroke="none" fill="#60e4e4" fill-rule="evenodd"></path><path id="path2" d="" stroke="none" fill="#60e4e4" fill-rule="evenodd"></path><path id="path3" d="" stroke="none" fill="#60e4e4" fill-rule="evenodd"></path><path id="path4" d="" stroke="none" fill="#60e4e4" fill-rule="evenodd"></path></g></svg>